<?xml version="1.0"?>
<svg xmlns="http://www.w3.org/2000/svg" xmlns:xlink="http://www.w3.org/1999/xlink" xmlns:svgjs="http://svgjs.com/svgjs" version="1.1" width="512" height="512" x="0" y="0" viewBox="0 0 24 24" style="enable-background:new 0 0 512 512" xml:space="preserve"><g><g xmlns="http://www.w3.org/2000/svg"><path d="M.012,12a1,1,0,0,1,.293-.707L8.477,3.122a5,5,0,0,1,7.07,0l8.172,8.171a1,1,0,0,1-1.414,1.414L14.133,4.536a3,3,0,0,0-4.242,0L1.719,12.707A1,1,0,0,1,.012,12Z" fill="#373e49" data-original="#000000"/><path d="M.012,22a1,1,0,0,1,.293-.707l9.586-9.586a3,3,0,0,1,4.242,0l9.586,9.586a1,1,0,0,1-1.414,1.414l-9.586-9.586a1,1,0,0,0-1.414,0L1.719,22.707A1,1,0,0,1,.012,22Z" fill="#373e49" data-original="#000000"/></g></g></svg>
