<svg xmlns="http://www.w3.org/2000/svg" viewBox="0 0 375 68.97"><g id="Capa_2" data-name="Capa 2"><g id="Capa_1-2" data-name="Capa 1"><path d="M242.19,22.61q.66.33,1.32.69c1.8,1,3.67,1.95,5.53,1.95h.4c5.14-.85,10.29-4.16,15.76-10.13.28-.31.56-.63.83-.95a8.91,8.91,0,0,1,2.85-2.56,2.22,2.22,0,0,1,.83-.19c.62,0,1.11.41,1.56,1.27l.14.3a18.9,18.9,0,0,0-1.89,4.43,18.53,18.53,0,0,0-.66,5.41,13.68,13.68,0,0,0,.9,4.83c1,2.39,2.14,2.82,3.19,3.06a4.77,4.77,0,0,0,1.08.12,11.52,11.52,0,0,0,3.56-.79c.6-.2,1.21-.41,1.81-.56.78-.19,1.58-.41,2.34-.62s1.74-.48,2.6-.69c3.34-.8,6.43-1.51,9.43-2.17l.24-.06a4.18,4.18,0,0,1,.92-.14,1.48,1.48,0,0,1,1.06.43l.08.07a1.77,1.77,0,0,1,.66,1.52,5,5,0,0,1-.53,2.29l0,.1a11.18,11.18,0,0,1-2,3.2l-.45.54c-.25.32-.51.62-.76.93a26.58,26.58,0,0,0-2.54,3.43,16.07,16.07,0,0,0-1.66,3.75,27.79,27.79,0,0,0-1,6.9c-.08,2.23-.4,3.65-1,4.47a3,3,0,0,1-2.32,1.39c-3.73.26-7.22,5.75-10.3,10.58a2.63,2.63,0,0,0-.22.65l-.79,2.89h20.51l.12-.48a31.42,31.42,0,0,1,2.76-7.94c.17-.29.33-.43.48-.43h0c.14,0,.28.13.42.41.3.6.61.88,1,.88s.86-.49,1.22-1l.41-.55a39.75,39.75,0,0,1,4.38-5.24L305,54c1.57-1.47,3.19-3,4.83-2.88,2.25.16,4.56,2,7.48,6.13a74.46,74.46,0,0,1,6,10.5,2,2,0,0,0,.11.2l.08.16.1.86h9.75c13.14,0,27.11,0,40.83,0,.21,0,.43-.09.59-.77a10.48,10.48,0,0,0,.19-2.39c0-17.51,0-35.3,0-52.51V0H264.19a3.42,3.42,0,0,0-.45,0l-.2,0h-.1l-.09.2A39.66,39.66,0,0,1,258.11,9a23.35,23.35,0,0,1-8.33,6.3l-.41.21h0a25.57,25.57,0,0,1-3.81,2l-1.3.61-.28.13a9,9,0,0,0-1.8,1l-2.52,2Z" fill="#ffc000"/><path d="M51.33,68.94l.12-.84a64.17,64.17,0,0,1,2.28-10.21c2.15-7.16,4.78-11.68,8.28-14.21a9.37,9.37,0,0,1,5.64-1.88,11.49,11.49,0,0,1,1.72.14,21,21,0,0,1,5.13,1.67c.88.39,1.77.73,2.64,1.06s1.52.58,2.28.91c1.14.48,2.3,1,3.42,1.51l2,.92.89.39C87,49,88.25,49.51,89.49,50l1,.41a41.61,41.61,0,0,0,4.55,1.68,14.12,14.12,0,0,0,6.37.3c3.79-.67,7.47-4.51,11-8.22l.21-.22c3-3.13,5.71-4.52,8.27-4.25,2.11.22,3.68,1.52,5.1,4.21.28.52.58.78.89.78.52,0,1.06-.7,1.56-2a13.29,13.29,0,0,0,.36-5.65,19.43,19.43,0,0,0-2.25-7.93,5.39,5.39,0,0,0-3.49-2.8,5.12,5.12,0,0,0-.87-.08c-2.46,0-5,1.88-8,5.92a16.72,16.72,0,0,1-7.14,5.74A12,12,0,0,1,102.37,39a8.2,8.2,0,0,1-1.12-.08,10.12,10.12,0,0,1-7.65-4.64,19,19,0,0,1-1.41-2.66l-.48-1a17.78,17.78,0,0,0-3-4.54,15,15,0,0,1,3.15-4.2,2.6,2.6,0,0,1,1.52-.53c1.11,0,2.28.78,3.67,2.45a44.2,44.2,0,0,1,3.17,4.62c.76,1.19,1.54,2.43,2.32,3.52s1.32,1.43,1.91,1.43h.07c.58,0,1-.75,1.29-2.1a23.69,23.69,0,0,0,.24-5.5A57.8,57.8,0,0,0,105,17.19c0-.23-.09-.46-.14-.7a25.16,25.16,0,0,1-.44-2.69,13,13,0,0,1,.08-4c.21-1.09.52-1.48.94-1.23a1.63,1.63,0,0,1,.67,1c.69,2.1,1.47,3.12,2.38,3.12a2.59,2.59,0,0,0,1.64-.87,12.29,12.29,0,0,0,2.73-5,19.35,19.35,0,0,0,.92-4.5l.2-2.15-.57-.06-.17,0a2.58,2.58,0,0,0-.39,0H1C.18,0,0,.72,0,4.07V68.94Z" fill="#1801ab"/><path d="M126.06,2.78l.36,1.72c.28,1.29.56,2.62.84,3.91a56,56,0,0,1,1.2,7.33c1,10.93,3,18.24,6.25,22.33,1.65,2.09,3.39,3.16,5.17,3.16a7.11,7.11,0,0,0,4.61-2.16c6-5.47,11.12-9.77,16.29-13a23.9,23.9,0,0,1,7.66-3.51,3.15,3.15,0,0,1,.52-.05,3,3,0,0,1,2.4,1.52,8.8,8.8,0,0,1,1.26,3,14.63,14.63,0,0,1,.45,3.63,12.94,12.94,0,0,1-.48,3.45A6.83,6.83,0,0,1,170,38.22a4.65,4.65,0,0,1-2.47.83c-.35.05-.7.09-1.05.17A38.15,38.15,0,0,0,156.08,44a74,74,0,0,0-7.25,5,2,2,0,0,0-.25.25l-.2.21-1,1.07,3.82,7.95-5.44.93-.18,2.71.26.64.48,1.24c.33.85.68,1.73,1,2.59l-.91,2.36h76.47l0-.06a1,1,0,0,1,.78-.36,3.58,3.58,0,0,1,.45,0,2.06,2.06,0,0,0,.7,0c3.26-.43,6.45-1,9.63-3.75a7.88,7.88,0,0,0,1.74-2.24,11,11,0,0,0,1-4.79,17.84,17.84,0,0,0-.73-5.7,15,15,0,0,0-1.45-3.35,13.1,13.1,0,0,0-5-4.91c-2.3-1.34-4.57-2.45-7.28-3.7l0,0a12.58,12.58,0,0,1-5.46-4.06,46.63,46.63,0,0,1-2.92-4.6c-2.16-3.77-4.43-6.13-6.75-7-1-.4-2.09-.77-3.1-1.13-1.59-.57-3.22-1.15-4.83-1.84-3.77-1.6-7.67-3.25-11.47-6.58-1.31-1.14-2.56-3.14-3.83-6.11a1.71,1.71,0,0,1-.09-.22c0-.07.06-.15.09-.23a3.78,3.78,0,0,1,2.48-2.45A6.18,6.18,0,0,1,189,5.52c2.13,0,4.2,1,6.5,2.15a44.68,44.68,0,0,1,9.08,6.3A21,21,0,0,1,209,19.71a12.71,12.71,0,0,0,5.34,5.43,26,26,0,0,0,7.33,2.7c1.6.36,3.23.67,4.8,1,.86.17,1.72.33,2.57.51a47.71,47.71,0,0,1,6.8,1.86l.29.11A22.18,22.18,0,0,0,243.4,33a10.9,10.9,0,0,0,1.29-.08,4.47,4.47,0,0,0,3.23-2.26c.6-.91,1.44-2.56,1.87-6.41l.26-2.36-.64,0a8.15,8.15,0,0,1-4-1l.24-.11a25.75,25.75,0,0,0,3.85-2.05l.57-.38-.28-2c-.47-3.46-1.31-4.5-2-5.41l0-.05a5,5,0,0,0-3.36-2,11.6,11.6,0,0,0-1.57-.11c-3.07,0-6.07,1.19-8.85,2.48a3.34,3.34,0,0,1-1.44.35c-1.39,0-2.58-1.1-3.64-3.38a18.68,18.68,0,0,1-1.32-6.88L227.46.1l-.33,0L227,0a2.2,2.2,0,0,0-.36,0H126.87a2.2,2.2,0,0,0-.36,0l-.15,0-.85.11Z" fill="#ff003c"/><path d="M147.9,68.94l.1-.26a5.91,5.91,0,0,0,.34-2.13,5.35,5.35,0,0,0-.39-2.21l-.76-1.9,5.69-1,.13-2.84-3.34-6.94a76,76,0,0,1,6.53-4.48,37,37,0,0,1,10.35-4.69,9.43,9.43,0,0,1,1-.17,4.89,4.89,0,0,0,2.6-.89c1-.79,2.09-1.82,3-4.93a22.38,22.38,0,0,0,.75-5.83,24.07,24.07,0,0,0-.69-6.07,10.93,10.93,0,0,0-1.56-3.71A3.28,3.28,0,0,0,169,19.2a2.74,2.74,0,0,0-.56.06,24,24,0,0,0-7.74,3.54c-5.2,3.27-10.29,7.58-16.35,13.06a6.82,6.82,0,0,1-4.43,2.08c-1.7,0-3.35-1-4.92-3-3-3.76-4.84-10.41-5.74-20.32a64.34,64.34,0,0,0-1.35-8.4c-.28-1.25-.56-2.57-.83-3.84L126.68.63l-.12-.57-2.37,0-5,0H119c-1.29,0-2.58,0-3.87,0l-1.77,0h-.28L113,1.13a12.77,12.77,0,0,1-.65,3,10.77,10.77,0,0,1-2.42,4.45,2.31,2.31,0,0,1-1.46.79c-.74,0-1.34-.78-1.89-2.45a2.79,2.79,0,0,0-1-1.6c-.71-.43-1.3.43-1.7,2.42a24.9,24.9,0,0,0-.2,7.25,34.46,34.46,0,0,0,.57,3.57c0,.22.09.44.13.66a47.86,47.86,0,0,1,.92,7.12,13.44,13.44,0,0,1-.07,2.8c-.14.7-.44.87-.67.89-.52,0-1-.37-1.7-1.26-.77-1.06-1.54-2.29-2.29-3.47a44,44,0,0,0-3.24-4.71C95.8,18.84,94.56,18,93.37,18a2.79,2.79,0,0,0-1.66.58c-1.2.86-2.31,2.71-3.38,4.51l-.48.79a.21.21,0,0,1,0,.06,4.89,4.89,0,0,0-.49,2.73c.08,1.64.48,1.9.61,2l0,0a15.72,15.72,0,0,1,3.36,4.79c.16.32.31.65.47,1a20,20,0,0,0,1.52,2.86,10.46,10.46,0,0,0,7.89,4.82,7.24,7.24,0,0,0,1.15.09,12.26,12.26,0,0,0,4.76-1.11,17.17,17.17,0,0,0,7.31-5.89c3-3.93,5.43-5.75,7.8-5.75a4.57,4.57,0,0,1,.83.07,4.85,4.85,0,0,1,3.22,2.57,15.18,15.18,0,0,1,1.82,6.26,2.9,2.9,0,0,1-.06,1.53c-.37,1-.76,1.49-1.12,1.49-.19,0-.38-.16-.54-.48-1.53-2.89-3.2-4.28-5.43-4.51-2.64-.28-5.41,1.14-8.49,4.35l-.21.22c-3.52,3.67-7.16,7.47-10.86,8.12a14.81,14.81,0,0,1-2.54.23,13.57,13.57,0,0,1-3.74-.53,46.63,46.63,0,0,1-4.53-1.66l-1-.42c-1.24-.5-2.49-1.06-3.71-1.6l-.89-.4-2-.91c-1.12-.51-2.28-1-3.42-1.52-.77-.33-1.54-.62-2.3-.91s-1.75-.67-2.62-1.06a21.43,21.43,0,0,0-5.19-1.68,10.66,10.66,0,0,0-1.75-.14,9.6,9.6,0,0,0-5.78,1.92c-3.65,2.64-6.4,7.38-8.66,14.91a71.54,71.54,0,0,0-2.47,11.14l-.34,2.45Z" fill="#640086"/><path d="M296.15,57.48c-1,1.72-2,4.47-3,8.65l-.7,2.81h32.11l-.27-2.36a3.94,3.94,0,0,0-.49-1.67l-.06-.12a75.42,75.42,0,0,0-6.11-10.68c-3-4.19-5.39-6.14-7.72-6.3h-.2c-1.67,0-3.28,1.51-4.84,3-.23.22-.46.44-.7.65a38.84,38.84,0,0,0-4.45,5.33l-.41.54c-.32.42-.65.81-1,.81s-.41-.18-.6-.55-.52-.75-.78-.75S296.42,57,296.15,57.48Z" fill="#fb3703"/><path d="M184,11.63c1.34,3.15,2.68,5.27,4.07,6.48,3.84,3.36,7.76,5,11.55,6.64,1.62.69,3.26,1.27,4.84,1.84,1,.36,2.07.73,3.1,1.13,2.24.86,4.43,3.14,6.51,6.76a48.26,48.26,0,0,0,3,4.72,13.12,13.12,0,0,0,5.63,4.2h0c2.7,1.25,5,2.36,7.26,3.69a12.63,12.63,0,0,1,4.84,4.7A13.48,13.48,0,0,1,236,54.69a9,9,0,0,1,.43,2.72,5,5,0,0,1-.57,2.19,6.94,6.94,0,0,1-1.57,2c-3.12,2.65-6.27,3.26-9.5,3.69a2.31,2.31,0,0,1-.64,0,3.91,3.91,0,0,0-.48,0,1.27,1.27,0,0,0-1,.48l-2.87,3.23h54.47l.11-.43s0-.09,0-.14c3.14-4.94,6.39-10,10-10.27A3.33,3.33,0,0,0,287,56.54c.89-1.22,1.4-3.6,1.54-7.07a18.56,18.56,0,0,1,.73-4.84,13.75,13.75,0,0,1,1.46-3.28A25.79,25.79,0,0,1,293.15,38l.77-.94.44-.53A12.17,12.17,0,0,0,296.58,33l0-.09a12,12,0,0,0,.91-5.55c-.1-3.19-.84-3.87-1.28-4.27l-.08-.07a1.72,1.72,0,0,0-1.24-.52,4.56,4.56,0,0,0-1,.15l-.23.06c-3,.66-6.09,1.37-9.43,2.17-.87.21-1.76.46-2.61.69s-1.56.43-2.34.62c-.61.15-1.22.36-1.82.56a11.28,11.28,0,0,1-3.5.79,4.42,4.42,0,0,1-1-.12c-.95-.21-2-.6-2.82-2.63a6.09,6.09,0,0,1-.5-2.29,9.24,9.24,0,0,1,.38-2.61,17.78,17.78,0,0,1,1.85-4.2,4.23,4.23,0,0,0,.56-2.23,7.35,7.35,0,0,0-.42-2.72,7.38,7.38,0,0,0-.42-1c-.56-1.09-1.17-1.59-1.91-1.59a2.42,2.42,0,0,0-.91.2,9.36,9.36,0,0,0-3,2.67c-.27.31-.55.64-.82.93-5.41,5.91-10.51,9.19-15.59,10l-.25,0-.1.92a10.32,10.32,0,0,1-1.42,4.68,4.05,4.05,0,0,1-3,2,8.69,8.69,0,0,1-1.26.09A22.2,22.2,0,0,1,236.22,28l-.29-.11A49.48,49.48,0,0,0,229.1,26l-2.57-.5c-1.57-.3-3.19-.61-4.79-1a25.32,25.32,0,0,1-7.26-2.66,12.14,12.14,0,0,1-5.12-5.17,21.84,21.84,0,0,0-4.62-6,44.7,44.7,0,0,0-9.15-6.35c-2.32-1.19-4.42-2.18-6.6-2.18a6.35,6.35,0,0,0-2.21.39A4.4,4.4,0,0,0,184,5.49a6.92,6.92,0,0,0-.65,3.07A7.15,7.15,0,0,0,184,11.63Z" fill="#fb3703"/><path d="M228.46,11.2c1.18,2.54,2.49,3.77,4,3.77A3.61,3.61,0,0,0,234,14.6c2.76-1.28,5.73-2.46,8.76-2.46a9.8,9.8,0,0,1,1.54.11,4.6,4.6,0,0,1,3.15,1.82l0,0A6.48,6.48,0,0,1,249.07,18l.13,1,.68-.36a23.73,23.73,0,0,0,8.47-6.42,41.07,41.07,0,0,0,5.39-9L265,.29,263.56.07l-.12,0a1.54,1.54,0,0,0-.3,0H227.53a1.54,1.54,0,0,0-.3,0l-.13,0-.46.07L226.72,2A25.25,25.25,0,0,0,228.46,11.2Z" fill="#fb3703"/></g></g></svg>