<svg xmlns="http://www.w3.org/2000/svg" viewBox="0 0 992 68.97"><g id="Capa_2" data-name="Capa 2"><g id="Capa_1-2" data-name="Capa 1"><path d="M640.68,22.61c1.16.22,2.33.45,3.49.69a74.73,74.73,0,0,0,14.63,1.95h1c13.6-.85,27.24-4.16,41.7-10.13l2.2-.95a30.35,30.35,0,0,1,7.53-2.56,14.63,14.63,0,0,1,2.2-.19,6.62,6.62,0,0,1,4.12,1.27,4,4,0,0,1,.37.3,19.34,19.34,0,0,0-5,4.43,8.09,8.09,0,0,0-1.77,5.41,6.89,6.89,0,0,0,2.4,4.83c2.7,2.39,5.64,2.82,8.43,3.06.92.08,1.85.12,2.85.12a75.58,75.58,0,0,0,9.44-.79c1.57-.2,3.19-.41,4.79-.56,2.06-.19,4.16-.41,6.18-.62,2.26-.24,4.59-.48,6.88-.69,8.84-.8,17-1.51,24.94-2.17l.64-.06c.8-.07,1.63-.14,2.43-.14a8.1,8.1,0,0,1,2.79.43l.22.07c1.25.44,1.67.72,1.75,1.52s-.31,1.27-1.41,2.29l-.11.1a18.65,18.65,0,0,1-5.37,3.2l-1.18.54c-.67.32-1.34.62-2,.93a56.84,56.84,0,0,0-6.72,3.43,17.13,17.13,0,0,0-4.38,3.75,12.59,12.59,0,0,0-2.72,6.9c-.23,2.23-1.07,3.65-2.63,4.47a13.73,13.73,0,0,1-6.13,1.39c-9.88.26-19.11,5.75-27.25,10.58a1.86,1.86,0,0,0-.58.65l-2.09,2.89h54.25l.32-.48c2.53-3.87,4.85-6.39,7.29-7.94a2.38,2.38,0,0,1,1.27-.43h0a1.87,1.87,0,0,1,1.13.41,4,4,0,0,0,2.52.88,7.43,7.43,0,0,0,3.24-1l1.08-.55a95.9,95.9,0,0,1,11.59-5.24l1.86-.65c4.16-1.47,8.46-3,12.8-2.88,5.94.16,12,2,19.77,6.13a110.09,110.09,0,0,1,15.88,10.5l.28.2a1.25,1.25,0,0,1,.22.16l.27.86h25.79c34.76,0,71.71,0,108,0a1.65,1.65,0,0,0,1.57-.77,4.35,4.35,0,0,0,.5-2.39c0-17.51,0-35.3,0-52.51V0H698.87c-.4,0-.8,0-1.18,0l-.54,0h-.26l-.23.2A62.78,62.78,0,0,1,682.79,9c-7.16,3.36-14.72,4.86-22,6.3l-1.08.21h0c-3.33.85-6.76,1.45-10.07,2l-3.45.61-.74.13a44.18,44.18,0,0,0-4.76,1l-6.66,2Z" fill="#ffc000"/><path d="M135.79,68.94l.31-.84a36.38,36.38,0,0,1,6-10.21A40,40,0,0,1,164,43.68,56.06,56.06,0,0,1,179,41.8c1.47,0,3,.05,4.56.14a129,129,0,0,1,13.57,1.67c2.33.39,4.69.73,7,1.06,2,.29,4,.58,6,.91,3,.48,6.08,1,9,1.51l5.41.92,2.34.39c3.22.55,6.55,1.11,9.83,1.61l2.71.41c3.94.62,8,1.25,12,1.68a95.08,95.08,0,0,0,10,.53c2.23,0,4.52-.07,6.8-.23,10-.67,19.77-4.51,29.18-8.22l.55-.22c7.95-3.13,15.1-4.52,21.88-4.25,5.58.22,9.74,1.52,13.49,4.21a4,4,0,0,0,2.36.78,6,6,0,0,0,4.13-2c1.27-1.28,1.62-3.39.93-5.65a13.33,13.33,0,0,0-5.95-7.93,19.91,19.91,0,0,0-9.23-2.8c-.75-.05-1.52-.08-2.28-.08-6.51,0-13.29,1.88-21.32,5.92a62.39,62.39,0,0,1-18.88,5.74A78.27,78.27,0,0,1,270.8,39c-1,0-2,0-3-.08-6.24-.34-13.47-1-20.22-4.64a25.28,25.28,0,0,1-3.74-2.66l-1.27-1A32.43,32.43,0,0,0,234.65,26a32.08,32.08,0,0,1,8.32-4.2,15.53,15.53,0,0,1,4-.53,23.38,23.38,0,0,1,9.7,2.45,83.21,83.21,0,0,1,8.4,4.62c2,1.19,4.06,2.43,6.14,3.52a10.72,10.72,0,0,0,5,1.43h.2a3.73,3.73,0,0,0,3.4-2.1,9.2,9.2,0,0,0,.64-5.5,25.18,25.18,0,0,0-2.85-8.53c-.13-.23-.25-.46-.37-.7a11.84,11.84,0,0,1-1.18-2.69,5.2,5.2,0,0,1,.21-4,2.08,2.08,0,0,1,2.51-1.23,3.1,3.1,0,0,1,1.76,1,8.06,8.06,0,0,0,6.29,3.12,13.16,13.16,0,0,0,4.35-.87,17.21,17.21,0,0,0,7.2-5,10.16,10.16,0,0,0,2.45-4.5l.53-2.15L299.9.06l-.45,0c-.33,0-.68,0-1,0H2.66C.47,0,0,.72,0,4.07V68.94Z" fill="#1801ab"/><path d="M333.47,2.78c.33.57.65,1.14,1,1.72.71,1.29,1.46,2.62,2.22,3.91a26.54,26.54,0,0,1,3.15,7.33c2.61,10.93,8,18.24,16.55,22.33A31.42,31.42,0,0,0,370,41.23a37.84,37.84,0,0,0,12.18-2.16c16-5.47,29.43-9.77,43.12-13a129.94,129.94,0,0,1,20.24-3.51c.48,0,.94-.05,1.39-.05A13,13,0,0,1,453.3,24a9,9,0,0,1,3.35,3,6.49,6.49,0,0,1,1.18,3.63,6,6,0,0,1-1.27,3.45c-1.9,2.57-4.31,3.44-6.81,4.17a27.75,27.75,0,0,1-6.53.83c-.91.05-1.84.09-2.76.17A209.31,209.31,0,0,0,412.88,44c-6.41,1.47-12.86,3.17-19.17,5a6.47,6.47,0,0,0-.66.25l-.55.21-2.75,1.07,10.12,7.95-14.39.93L385,62.11l.67.64L387,64c.88.85,1.79,1.73,2.7,2.59l-2.4,2.36H589.53l.14-.06a5.05,5.05,0,0,1,2.07-.36c.39,0,.77,0,1.18,0a14.44,14.44,0,0,0,1.86,0c8.63-.43,17.07-1,25.48-3.75a17.93,17.93,0,0,0,4.61-2.24,6.35,6.35,0,0,0,2.75-4.79,8,8,0,0,0-1.94-5.7,15.71,15.71,0,0,0-3.83-3.35,41,41,0,0,0-13.31-4.91c-6.1-1.34-12.11-2.45-19.26-3.7l-.08,0c-4.81-.84-9.79-1.72-14.46-4.06a79.52,79.52,0,0,1-7.7-4.6,43.9,43.9,0,0,0-17.88-7c-2.73-.4-5.51-.77-8.2-1.13-4.19-.57-8.52-1.15-12.77-1.84-10-1.6-20.28-3.25-30.34-6.58a29.07,29.07,0,0,1-10.14-6.11l-.24-.22.25-.23c1.94-1.7,4.12-2.11,6.57-2.45A41.3,41.3,0,0,1,500,5.52c5.63,0,11.11,1,17.18,2.15a191.26,191.26,0,0,1,24,6.3,46.86,46.86,0,0,1,11.79,5.74c4.62,3.18,9.51,4.43,14.13,5.43a154,154,0,0,0,19.38,2.7c4.24.36,8.54.67,12.7,1l6.8.51c6.48.49,12.36,1.1,18,1.86l.78.11A143.75,143.75,0,0,0,643.88,33c1.16,0,2.3,0,3.4-.08a18.34,18.34,0,0,0,8.55-2.26,10.22,10.22,0,0,0,4.95-6.41l.69-2.36-1.69,0a52.08,52.08,0,0,1-10.61-1l.63-.11c3.34-.58,6.8-1.18,10.19-2.05l1.5-.38-.74-2c-1.25-3.46-3.46-4.5-5.4-5.41l-.11-.05a23.34,23.34,0,0,0-8.88-2c-1.35-.07-2.75-.11-4.16-.11a136,136,0,0,0-23.41,2.48,21.49,21.49,0,0,1-3.8.35,14.63,14.63,0,0,1-9.62-3.38,9.81,9.81,0,0,1-3.51-6.88L601.71.1l-.88,0-.42,0c-.3,0-.62,0-.94,0H335.62c-.32,0-.64,0-.95,0l-.41,0L332,.17Z" fill="#ff003c"/><path d="M391.25,68.94l.26-.26a2.9,2.9,0,0,0,.9-2.13,3,3,0,0,0-1-2.21c-.67-.62-1.35-1.26-2-1.9l15-1,.36-2.84-8.84-6.94c5.7-1.65,11.5-3.15,17.27-4.48a203.37,203.37,0,0,1,27.38-4.69c.9-.08,1.82-.13,2.7-.17a29.24,29.24,0,0,0,6.87-.89c2.7-.79,5.52-1.82,7.84-4.93a10.12,10.12,0,0,0,2-5.83,10.5,10.5,0,0,0-1.83-6.07A11.16,11.16,0,0,0,454,20.91,14.44,14.44,0,0,0,447,19.2c-.48,0-1,0-1.49.06A131,131,0,0,0,425,22.8c-13.74,3.27-27.22,7.58-43.25,13.06A36.3,36.3,0,0,1,370,37.94a29.85,29.85,0,0,1-13-3c-7.84-3.76-12.8-10.41-15.17-20.32a29.44,29.44,0,0,0-3.58-8.4c-.74-1.25-1.47-2.57-2.18-3.84l-1-1.74-.33-.57-6.26,0L315.26,0h-.47c-3.41,0-6.82,0-10.23,0l-4.69,0h-.74l-.26,1.07a7.1,7.1,0,0,1-1.72,3,15.21,15.21,0,0,1-6.4,4.45,11.66,11.66,0,0,1-3.87.79,6.31,6.31,0,0,1-5-2.45,5,5,0,0,0-2.75-1.6c-1.88-.43-3.45.43-4.5,2.42a9.93,9.93,0,0,0-.53,7.25,15.46,15.46,0,0,0,1.51,3.57l.34.66a21.08,21.08,0,0,1,2.44,7.12,5.42,5.42,0,0,1-.2,2.8,2,2,0,0,1-1.76.89,9.27,9.27,0,0,1-4.51-1.26c-2-1.06-4.07-2.29-6.05-3.47a83.13,83.13,0,0,0-8.57-4.71A24.81,24.81,0,0,0,247,18a16.74,16.74,0,0,0-4.41.58c-3.16.86-6.1,2.71-8.94,4.51l-1.25.79-.11.06A2.55,2.55,0,0,0,231,26.69a2,2,0,0,0,1.6,2l.14,0a30.72,30.72,0,0,1,8.89,4.79l1.23,1a27.29,27.29,0,0,0,4,2.86c7,3.78,14.46,4.47,20.86,4.82,1,.06,2,.09,3.05.09a79.88,79.88,0,0,0,12.6-1.11,63.85,63.85,0,0,0,19.33-5.89c7.81-3.93,14.37-5.75,20.65-5.75.73,0,1.46,0,2.18.07a18.13,18.13,0,0,1,8.53,2.57,10.58,10.58,0,0,1,4.8,6.26c.32,1,.05,1.31-.17,1.53a4.37,4.37,0,0,1-2.94,1.49,2.43,2.43,0,0,1-1.45-.48c-4-2.89-8.45-4.28-14.34-4.51-7-.28-14.33,1.14-22.48,4.35L297,41c-9.3,3.67-18.93,7.47-28.73,8.12-2.26.15-4.51.23-6.71.23a92.26,92.26,0,0,1-9.9-.53c-4-.43-8.05-1.06-12-1.66l-2.71-.42c-3.27-.5-6.59-1.06-9.8-1.6l-2.36-.4-5.4-.91c-3-.51-6-1-9-1.52-2-.33-4.08-.62-6.07-.91-2.28-.33-4.64-.67-6.95-1.06a130.6,130.6,0,0,0-13.72-1.68c-1.58-.1-3.15-.14-4.64-.14a57.63,57.63,0,0,0-15.29,1.92,42,42,0,0,0-22.9,14.91,39.79,39.79,0,0,0-6.54,11.14l-.9,2.45Z" fill="#640086"/><path d="M783.41,57.48c-2.71,1.72-5.25,4.47-8,8.65l-1.85,2.81h84.95l-.73-2.36a2.93,2.93,0,0,0-1.27-1.67l-.18-.12A112.43,112.43,0,0,0,840.2,54.11c-8-4.19-14.27-6.14-20.44-6.3h-.52c-4.41,0-8.68,1.51-12.8,3l-1.86.65a94.94,94.94,0,0,0-11.78,5.33l-1.09.54a5.9,5.9,0,0,1-2.56.81,2.55,2.55,0,0,1-1.58-.55,3.42,3.42,0,0,0-2.07-.75A3.85,3.85,0,0,0,783.41,57.48Z" fill="#fb3703"/><path d="M486.64,11.63a30.57,30.57,0,0,0,10.76,6.48c10.17,3.36,20.54,5,30.57,6.64,4.26.69,8.6,1.27,12.8,1.84,2.69.36,5.46.73,8.19,1.13a42.53,42.53,0,0,1,17.23,6.76,79.29,79.29,0,0,0,7.88,4.72c4.88,2.44,10,3.33,14.88,4.2H589c7.13,1.25,13.12,2.36,19.19,3.69A39.55,39.55,0,0,1,621,51.8a13.69,13.69,0,0,1,3.31,2.89,4.13,4.13,0,0,1,1.13,2.72A3.13,3.13,0,0,1,624,59.6a15.46,15.46,0,0,1-4.16,2c-8.25,2.65-16.59,3.26-25.12,3.69a16.45,16.45,0,0,1-1.71,0c-.4,0-.82,0-1.25,0a6.45,6.45,0,0,0-2.64.48l-7.6,3.23H725.58l.31-.43.09-.14c8.31-4.94,16.91-10,26.35-10.27a15.08,15.08,0,0,0,6.78-1.56c2.34-1.22,3.71-3.6,4.06-7.07a8.8,8.8,0,0,1,1.94-4.84A15.07,15.07,0,0,1,769,41.35,55.72,55.72,0,0,1,775.49,38l2-.94,1.15-.53A20.29,20.29,0,0,0,784.55,33l.1-.09a6.19,6.19,0,0,0,2.43-5.55,4.39,4.39,0,0,0-3.41-4.27l-.2-.07a9.49,9.49,0,0,0-3.28-.52c-.87,0-1.73.08-2.56.15l-.63.06c-7.94.66-16.1,1.37-24.94,2.17-2.31.21-4.64.46-6.9.69-2,.21-4.12.43-6.17.62-1.62.15-3.26.36-4.84.56a73.52,73.52,0,0,1-9.26.79c-1,0-1.85,0-2.73-.12-2.52-.21-5.18-.6-7.48-2.63a3.47,3.47,0,0,1-1.32-2.29,4.14,4.14,0,0,1,1-2.61,18.55,18.55,0,0,1,4.88-4.2,2.75,2.75,0,0,0,1.48-2.23,3.52,3.52,0,0,0-1.1-2.72,6.2,6.2,0,0,0-1.12-1,8.07,8.07,0,0,0-5-1.59,16,16,0,0,0-2.41.2A32.16,32.16,0,0,0,703.14,11c-.71.31-1.44.64-2.16.93-14.3,5.91-27.79,9.19-41.23,10l-.66,0-.27.92a7.51,7.51,0,0,1-3.75,4.68,16.76,16.76,0,0,1-7.86,2c-1.08.06-2.2.09-3.33.09a143.33,143.33,0,0,1-19-1.72l-.78-.11c-5.64-.76-11.54-1.38-18.05-1.88l-6.81-.5c-4.15-.3-8.45-.61-12.68-1a150.19,150.19,0,0,1-19.2-2.66c-4.46-1-9.19-2.17-13.55-5.17a48.18,48.18,0,0,0-12.21-6A192.57,192.57,0,0,0,517.4,4.41C511.26,3.22,505.7,2.23,500,2.23a42.46,42.46,0,0,0-5.85.39c-2.61.36-5.14.85-7.45,2.87A3.94,3.94,0,0,0,485,8.56,4,4,0,0,0,486.64,11.63Z" fill="#fb3703"/><path d="M604.35,11.2A16.19,16.19,0,0,0,615,15a23.45,23.45,0,0,0,4-.37,134.46,134.46,0,0,1,23.16-2.46c1.38,0,2.76,0,4.08.11a21.66,21.66,0,0,1,8.33,1.82l.11,0c1.78.84,3.32,1.56,4.15,3.86l.35,1L661,18.6c7.4-1.46,15.06-3,22.39-6.42a64.48,64.48,0,0,0,14.27-9L701.11.29,697.22.07l-.34,0c-.26,0-.52,0-.79,0h-94.2c-.27,0-.54,0-.79,0l-.34,0-1.23.07L599.74,2A13.34,13.34,0,0,0,604.35,11.2Z" fill="#fb3703"/></g></g></svg>