<svg xmlns="http://www.w3.org/2000/svg" viewBox="0 0 576 68.97"><g id="Capa_2" data-name="Capa 2"><g id="Capa_1-2" data-name="Capa 1"><path d="M372,22.61c.67.22,1.35.45,2,.69,2.77,1,5.63,1.95,8.5,1.95h.6c7.9-.85,15.82-4.16,24.22-10.13l1.27-.95A13.57,13.57,0,0,1,413,11.6a5.08,5.08,0,0,1,1.28-.19,3,3,0,0,1,2.4,1.27l.21.3A16.56,16.56,0,0,0,414,17.41a12.5,12.5,0,0,0-1,5.41,9.64,9.64,0,0,0,1.39,4.83,6.25,6.25,0,0,0,4.9,3.06,11,11,0,0,0,1.66.12,26.16,26.16,0,0,0,5.48-.79c.91-.2,1.85-.41,2.77-.56,1.2-.19,2.42-.41,3.6-.62s2.66-.48,4-.69c5.13-.8,9.87-1.51,14.48-2.17l.37-.06A9.76,9.76,0,0,1,453,25.8a3,3,0,0,1,1.63.43l.12.07a1.62,1.62,0,0,1,1,1.52,3.58,3.58,0,0,1-.82,2.29l-.06.1a11.78,11.78,0,0,1-3.12,3.2l-.69.54c-.38.32-.77.62-1.16.93A32.43,32.43,0,0,0,446,38.31a14.25,14.25,0,0,0-2.54,3.75A18.56,18.56,0,0,0,441.9,49c-.14,2.23-.62,3.65-1.53,4.47a5.43,5.43,0,0,1-3.56,1.39c-5.74.26-11.09,5.75-15.82,10.58a2,2,0,0,0-.34.65l-1.21,2.89h31.5l.18-.48c1.48-3.87,2.82-6.39,4.24-7.94a1.08,1.08,0,0,1,.73-.43h0a.86.86,0,0,1,.65.41,1.86,1.86,0,0,0,1.47.88,3.18,3.18,0,0,0,1.88-1l.63-.55a49.56,49.56,0,0,1,6.72-5.24l1.09-.65c2.41-1.47,4.91-3,7.43-2.88,3.45.16,7,2,11.48,6.13a74.28,74.28,0,0,1,9.21,10.5l.17.2a1,1,0,0,1,.13.16l.15.86h15c20.18,0,41.64,0,62.71,0,.32,0,.66-.09.91-.77a7,7,0,0,0,.29-2.39c0-17.51,0-35.3,0-52.51V0H405.8c-.24,0-.47,0-.69,0l-.31,0h-.16l-.13.2A41.22,41.22,0,0,1,396.46,9c-4.16,3.36-8.55,4.86-12.8,6.3l-.63.21h0a48.28,48.28,0,0,1-5.85,2l-2,.61-.43.13a17,17,0,0,0-2.76,1l-3.87,2Z" fill="#ffc000"/><path d="M78.84,68.94,79,68.1a47.24,47.24,0,0,1,3.51-10.21c3.3-7.16,7.34-11.68,12.72-14.21a19.94,19.94,0,0,1,8.66-1.88c.85,0,1.74.05,2.64.14a45.12,45.12,0,0,1,7.88,1.67c1.35.39,2.73.73,4,1.06,1.16.29,2.35.58,3.52.91,1.75.48,3.52,1,5.24,1.51l3.14.92,1.36.39c1.87.55,3.81,1.11,5.71,1.61l1.58.41c2.28.62,4.65,1.25,7,1.68a32.25,32.25,0,0,0,5.83.53,33.18,33.18,0,0,0,4-.23c5.82-.67,11.48-4.51,16.94-8.22l.32-.22c4.62-3.13,8.77-4.52,12.71-4.25a10.34,10.34,0,0,1,7.83,4.21,1.78,1.78,0,0,0,1.37.78c.8,0,1.63-.7,2.4-2a8.93,8.93,0,0,0,.54-5.65c-.63-3.58-1.73-6.09-3.46-7.93a8.57,8.57,0,0,0-5.36-2.8,11.55,11.55,0,0,0-1.32-.08c-3.78,0-7.72,1.88-12.38,5.92a26.72,26.72,0,0,1-11,5.74A27.09,27.09,0,0,1,157.24,39c-.59,0-1.17,0-1.73-.08-3.62-.34-7.82-1-11.74-4.64a18.69,18.69,0,0,1-2.17-2.66c-.24-.34-.49-.68-.74-1A19.56,19.56,0,0,0,136.25,26c1.62-1.76,3.16-3.42,4.83-4.2a5.51,5.51,0,0,1,2.34-.53c1.7,0,3.49.78,5.63,2.45a49.76,49.76,0,0,1,4.88,4.62c1.16,1.19,2.36,2.43,3.56,3.52a4.49,4.49,0,0,0,2.93,1.43h.11c.9,0,1.56-.75,2-2.1a15.65,15.65,0,0,0,.37-5.5,38.65,38.65,0,0,0-1.66-8.53c-.07-.23-.14-.46-.22-.7a18.26,18.26,0,0,1-.68-2.69,8.8,8.8,0,0,1,.12-4c.33-1.09.81-1.48,1.46-1.23a1.91,1.91,0,0,1,1,1c1,2.1,2.25,3.12,3.65,3.12a5,5,0,0,0,2.52-.87,12.09,12.09,0,0,0,4.18-5,13.48,13.48,0,0,0,1.43-4.5L175,.12l-.87-.06-.27,0a5.65,5.65,0,0,0-.59,0H1.54C.27,0,0,.72,0,4.07V68.94Z" fill="#1801ab"/><path d="M193.63,2.78c.19.57.37,1.14.56,1.72.42,1.29.85,2.62,1.29,3.91a38.65,38.65,0,0,1,1.83,7.33C198.83,26.67,202,34,206.92,38.07a12.4,12.4,0,0,0,7.93,3.16,14,14,0,0,0,7.08-2.16c9.28-5.47,17.09-9.77,25-13a47.85,47.85,0,0,1,11.76-3.51,7.31,7.31,0,0,1,.8-.05A5.23,5.23,0,0,1,263.21,24a7.68,7.68,0,0,1,1.94,3,10.07,10.07,0,0,1,.69,3.63,9.06,9.06,0,0,1-.74,3.45,7.4,7.4,0,0,1-4,4.17,9.83,9.83,0,0,1-3.79.83c-.52.05-1.07.09-1.6.17a76.76,76.76,0,0,0-16,4.73c-3.73,1.47-7.47,3.17-11.13,5a3.46,3.46,0,0,0-.39.25l-.31.21-1.6,1.07,5.87,7.95-8.35.93-.27,2.71.38.64.75,1.24c.51.85,1,1.73,1.57,2.59l-1.4,2.36H342.31l.08-.06a1.9,1.9,0,0,1,1.2-.36c.23,0,.45,0,.69,0a4.88,4.88,0,0,0,1.08,0c5-.43,9.91-1,14.79-3.75a9.73,9.73,0,0,0,2.68-2.24,8.1,8.1,0,0,0,1.59-4.79,12.05,12.05,0,0,0-1.12-5.7,13.3,13.3,0,0,0-2.23-3.35,19.06,19.06,0,0,0-7.72-4.91c-3.55-1.34-7-2.45-11.19-3.7l0,0c-2.8-.84-5.69-1.72-8.4-4.06a49.66,49.66,0,0,1-4.47-4.6c-3.32-3.77-6.82-6.13-10.38-7-1.59-.4-3.2-.77-4.76-1.13-2.44-.57-4.95-1.15-7.42-1.84-5.79-1.6-11.77-3.25-17.61-6.58a18.3,18.3,0,0,1-5.89-6.11l-.14-.22a2.22,2.22,0,0,1,.15-.23A5.45,5.45,0,0,1,287,5.89a14.12,14.12,0,0,1,3.29-.37c3.26,0,6.44,1,10,2.15a77.46,77.46,0,0,1,14,6.3,25.61,25.61,0,0,1,6.84,5.74,17.94,17.94,0,0,0,8.2,5.43,55,55,0,0,0,11.26,2.7c2.46.36,5,.67,7.37,1,1.32.17,2.64.33,3.95.51a105.25,105.25,0,0,1,10.43,1.86l.46.11A49.69,49.69,0,0,0,373.86,33c.68,0,1.34,0,2-.08a7.62,7.62,0,0,0,5-2.26c.91-.91,2.21-2.56,2.87-6.41l.4-2.36-1,0a18.06,18.06,0,0,1-6.16-1l.36-.11a49.55,49.55,0,0,0,5.92-2.05l.87-.38-.43-2c-.72-3.46-2-4.5-3.14-5.41l-.06-.05a9.15,9.15,0,0,0-5.16-2c-.78-.07-1.59-.11-2.41-.11a47.44,47.44,0,0,0-13.59,2.48,7.51,7.51,0,0,1-2.21.35c-2.14,0-4-1.1-5.59-3.38a13.14,13.14,0,0,1-2-6.88L349.38.1l-.51,0-.24,0a5.09,5.09,0,0,0-.55,0H194.88a4.74,4.74,0,0,0-.55,0l-.25,0-1.3.11Z" fill="#ff003c"/><path d="M227.18,68.94l.15-.26a4.13,4.13,0,0,0,.52-2.13,4,4,0,0,0-.59-2.21c-.39-.62-.78-1.26-1.17-1.9l8.73-1,.21-2.84-5.13-6.94c3.31-1.65,6.67-3.15,10-4.48a74.49,74.49,0,0,1,15.9-4.69c.52-.08,1.05-.13,1.57-.17a10.41,10.41,0,0,0,4-.89,8.76,8.76,0,0,0,4.55-4.93,15.57,15.57,0,0,0,1.16-5.83A16.43,16.43,0,0,0,266,24.62a9.62,9.62,0,0,0-2.4-3.71,5.81,5.81,0,0,0-4.1-1.71,6.33,6.33,0,0,0-.86.06,48.07,48.07,0,0,0-11.89,3.54c-8,3.27-15.81,7.58-25.11,13.06a13.53,13.53,0,0,1-6.81,2.08,11.78,11.78,0,0,1-7.56-3c-4.55-3.76-7.43-10.41-8.81-20.32a43.54,43.54,0,0,0-2.07-8.4c-.43-1.25-.86-2.57-1.27-3.84-.19-.58-.37-1.16-.56-1.74l-.19-.57-3.64,0-7.69,0h-.28c-2,0-4,0-5.94,0l-2.72,0h-.43l-.16,1.07a9.16,9.16,0,0,1-1,3,10.68,10.68,0,0,1-3.72,4.45,4.42,4.42,0,0,1-2.24.79c-1.14,0-2.06-.78-2.9-2.45a3.07,3.07,0,0,0-1.6-1.6c-1.09-.43-2,.43-2.61,2.42a16.4,16.4,0,0,0-.31,7.25,22.18,22.18,0,0,0,.88,3.57c.06.22.13.44.2.66a32.55,32.55,0,0,1,1.41,7.12,9.15,9.15,0,0,1-.11,2.8,1.11,1.11,0,0,1-1,.89,3.82,3.82,0,0,1-2.61-1.26c-1.18-1.06-2.37-2.29-3.52-3.47a49.51,49.51,0,0,0-5-4.71c-2.26-1.76-4.17-2.58-6-2.58a6,6,0,0,0-2.56.58c-1.84.86-3.54,2.71-5.19,4.51-.24.26-.48.53-.73.79l-.06.06a3.44,3.44,0,0,0-.75,2.73c.11,1.64.73,1.9.93,2l.08,0a17.92,17.92,0,0,1,5.16,4.79l.72,1a19.45,19.45,0,0,0,2.34,2.86c4.08,3.78,8.39,4.47,12.11,4.82a17,17,0,0,0,1.77.09,30.37,30.37,0,0,0,18.54-7c4.54-3.93,8.34-5.75,12-5.75a10.81,10.81,0,0,1,1.27.07A7.77,7.77,0,0,1,194,32.14a11.56,11.56,0,0,1,2.79,6.26c.19,1,0,1.31-.09,1.53-.56,1-1.16,1.49-1.71,1.49a1.08,1.08,0,0,1-.84-.48,11,11,0,0,0-8.33-4.51c-4.06-.28-8.32,1.14-13.05,4.35l-.32.22c-5.4,3.67-11,7.47-16.68,8.12a34.41,34.41,0,0,1-3.9.23,31.46,31.46,0,0,1-5.75-.53c-2.31-.43-4.67-1.06-6.95-1.66l-1.57-.42c-1.9-.5-3.83-1.06-5.69-1.6l-1.37-.4-3.14-.91c-1.72-.51-3.5-1-5.25-1.52-1.18-.33-2.37-.62-3.53-.91-1.32-.33-2.69-.67-4-1.06a46,46,0,0,0-8-1.68,25,25,0,0,0-2.69-.14A20.51,20.51,0,0,0,95,40.44c-5.6,2.64-9.83,7.38-13.3,14.91a51.38,51.38,0,0,0-3.8,11.14l-.52,2.45Z" fill="#640086"/><path d="M454.88,57.48c-1.57,1.72-3.05,4.47-4.64,8.65l-1.07,2.81H498.5l-.43-2.36a3.08,3.08,0,0,0-.74-1.67l-.1-.12a76.93,76.93,0,0,0-9.37-10.68c-4.63-4.19-8.29-6.14-11.87-6.3h-.3c-2.57,0-5,1.51-7.44,3l-1.07.65a49.53,49.53,0,0,0-6.85,5.33l-.63.54a2.59,2.59,0,0,1-1.48.81,1.16,1.16,0,0,1-.92-.55,1.59,1.59,0,0,0-1.2-.75A1.71,1.71,0,0,0,454.88,57.48Z" fill="#fb3703"/><path d="M282.56,11.63a19.36,19.36,0,0,0,6.25,6.48c5.91,3.36,11.93,5,17.75,6.64,2.48.69,5,1.27,7.44,1.84,1.55.36,3.17.73,4.75,1.13,3.44.86,6.8,3.14,10,6.76a50.84,50.84,0,0,0,4.58,4.72c2.83,2.44,5.79,3.33,8.64,4.2h0c4.14,1.25,7.62,2.36,11.15,3.69a18.31,18.31,0,0,1,7.43,4.7,11.94,11.94,0,0,1,1.93,2.89,6,6,0,0,1,.65,2.72,3.67,3.67,0,0,1-.87,2.19,8.39,8.39,0,0,1-2.42,2c-4.78,2.65-9.62,3.26-14.58,3.69a5.49,5.49,0,0,1-1,0c-.24,0-.48,0-.73,0a2.43,2.43,0,0,0-1.53.48l-4.42,3.23H421.3l.18-.43.06-.14c4.82-4.94,9.82-10,15.3-10.27a6,6,0,0,0,3.93-1.56c1.36-1.22,2.16-3.6,2.36-7.07a12.87,12.87,0,0,1,1.13-4.84,12.69,12.69,0,0,1,2.23-3.28A31.6,31.6,0,0,1,450.28,38l1.18-.94.67-.53A12.66,12.66,0,0,0,455.54,33l.07-.09a8.46,8.46,0,0,0,1.4-5.55c-.16-3.19-1.3-3.87-2-4.27l-.12-.07a3.51,3.51,0,0,0-1.91-.52,10.31,10.31,0,0,0-1.48.15l-.37.06c-4.61.66-9.35,1.37-14.48,2.17-1.34.21-2.7.46-4,.69s-2.39.43-3.58.62c-.94.15-1.89.36-2.81.56a25.33,25.33,0,0,1-5.37.79,10.16,10.16,0,0,1-1.59-.12A5.51,5.51,0,0,1,415,24.8a4.48,4.48,0,0,1-.77-2.29,6.17,6.17,0,0,1,.59-2.61,15.7,15.7,0,0,1,2.83-4.2,3.15,3.15,0,0,0,.87-2.23,5.09,5.09,0,0,0-.64-2.72,6.4,6.4,0,0,0-.65-1,3.59,3.59,0,0,0-2.94-1.59,5.53,5.53,0,0,0-1.4.2A14.23,14.23,0,0,0,408.28,11c-.42.31-.84.64-1.26.93-8.3,5.91-16.13,9.19-23.94,10l-.38,0-.16.92a8.08,8.08,0,0,1-2.17,4.68,6.94,6.94,0,0,1-4.57,2c-.63.06-1.28.09-1.93.09a49.56,49.56,0,0,1-11-1.72l-.46-.11c-3.27-.76-6.7-1.38-10.48-1.88l-3.95-.5c-2.41-.3-4.91-.61-7.36-1a53.57,53.57,0,0,1-11.15-2.66,17.27,17.27,0,0,1-7.86-5.17,26.58,26.58,0,0,0-7.09-6,77.76,77.76,0,0,0-14.07-6.35c-3.56-1.19-6.79-2.18-10.12-2.18a14.61,14.61,0,0,0-3.41.39,6.28,6.28,0,0,0-4.32,2.87,5.06,5.06,0,0,0-1,3.07A5.15,5.15,0,0,0,282.56,11.63Z" fill="#fb3703"/><path d="M350.91,11.2c1.81,2.54,3.83,3.77,6.18,3.77a8.08,8.08,0,0,0,2.35-.37,47,47,0,0,1,13.45-2.46,23.09,23.09,0,0,1,2.37.11,8.42,8.42,0,0,1,4.83,1.82l.07,0A5.68,5.68,0,0,1,382.57,18l.2,1,1.05-.36c4.3-1.46,8.75-3,13-6.42a42.66,42.66,0,0,0,8.28-9l2-2.86L404.84.07l-.2,0a3.42,3.42,0,0,0-.46,0h-54.7A3.27,3.27,0,0,0,349,0l-.2,0-.72.07L348.24,2C348.5,6,349.4,9.07,350.91,11.2Z" fill="#fb3703"/></g></g></svg>