<svg xmlns="http://www.w3.org/2000/svg" viewBox="0 0 768 68.97"><g id="Capa_2" data-name="Capa 2"><g id="Capa_1-2" data-name="Capa 1"><path d="M496,22.61q1.35.33,2.7.69A45.69,45.69,0,0,0,510,25.25h.8c10.54-.85,21.1-4.16,32.29-10.13l1.7-.95a20,20,0,0,1,5.83-2.56,8.89,8.89,0,0,1,1.7-.19,4.39,4.39,0,0,1,3.19,1.27,4,4,0,0,1,.29.3A16.87,16.87,0,0,0,552,17.41a9.65,9.65,0,0,0-1.37,5.41,7.84,7.84,0,0,0,1.85,4.83A9.08,9.08,0,0,0,559,30.71a19.52,19.52,0,0,0,2.21.12,45.54,45.54,0,0,0,7.3-.79c1.22-.2,2.48-.41,3.71-.56,1.6-.19,3.22-.41,4.79-.62,1.75-.24,3.55-.48,5.33-.69,6.83-.8,13.15-1.51,19.3-2.17l.49-.06A17.16,17.16,0,0,1,604,25.8a5,5,0,0,1,2.16.43l.17.07c1,.44,1.29.72,1.35,1.52s-.24,1.27-1.09,2.29l-.08.1a14.29,14.29,0,0,1-4.16,3.2l-.91.54c-.52.32-1,.62-1.56.93a41.18,41.18,0,0,0-5.2,3.43A14,14,0,0,0,589.2,49c-.18,2.23-.83,3.65-2,4.47a8.7,8.7,0,0,1-4.74,1.39c-7.65.26-14.8,5.75-21.1,10.58a1.87,1.87,0,0,0-.45.65l-1.62,2.89h42l.25-.48c2-3.87,3.76-6.39,5.65-7.94a1.56,1.56,0,0,1,1-.43h0a1.26,1.26,0,0,1,.87.41,2.72,2.72,0,0,0,2,.88,4.8,4.8,0,0,0,2.5-1l.84-.55a67.91,67.91,0,0,1,9-5.24l1.44-.65c3.22-1.47,6.55-3,9.91-2.88,4.6.16,9.32,2,15.31,6.13a87,87,0,0,1,12.29,10.5l.22.2a1.29,1.29,0,0,1,.17.16l.21.86h20c26.91,0,55.52,0,83.61,0a1.2,1.2,0,0,0,1.21-.77,5.45,5.45,0,0,0,.39-2.39c0-17.51,0-35.3,0-52.51V0H541.06c-.31,0-.62,0-.91,0l-.42,0h-.2l-.18.2A48.77,48.77,0,0,1,528.61,9c-5.54,3.36-11.4,4.86-17.06,6.3l-.84.21h0c-2.58.85-5.23,1.45-7.8,2l-2.66.61-.58.13a28.5,28.5,0,0,0-3.69,1l-5.15,2Z" fill="#ffc000"/><path d="M105.13,68.94l.23-.84A39.71,39.71,0,0,1,110,57.89c4.39-7.16,9.79-11.68,17-14.21a34.25,34.25,0,0,1,11.55-1.88c1.13,0,2.32.05,3.52.14a78.45,78.45,0,0,1,10.51,1.67c1.8.39,3.63.73,5.4,1.06,1.53.29,3.12.58,4.68.91,2.33.48,4.71,1,7,1.51l4.18.92,1.82.39c2.49.55,5.07,1.11,7.61,1.61l2.1.41c3,.62,6.2,1.25,9.32,1.68a57.11,57.11,0,0,0,7.78.53c1.72,0,3.49-.07,5.26-.23,7.77-.67,15.3-4.51,22.59-8.22l.43-.22c6.15-3.13,11.69-4.52,16.94-4.25a15.49,15.49,0,0,1,10.44,4.21,2.66,2.66,0,0,0,1.83.78,4.3,4.3,0,0,0,3.19-2,6.87,6.87,0,0,0,.73-5.65,13.48,13.48,0,0,0-4.61-7.93,13,13,0,0,0-7.15-2.8c-.58-.05-1.17-.08-1.76-.08-5,0-10.29,1.88-16.51,5.92a40.74,40.74,0,0,1-14.61,5.74A47.4,47.4,0,0,1,209.65,39c-.78,0-1.55,0-2.3-.08-4.83-.34-10.43-1-15.65-4.64a20.72,20.72,0,0,1-2.9-2.66c-.33-.34-.65-.68-1-1A24.49,24.49,0,0,0,181.67,26c2.16-1.76,4.21-3.42,6.43-4.2a9.51,9.51,0,0,1,3.12-.53,14.92,14.92,0,0,1,7.52,2.45,62.44,62.44,0,0,1,6.5,4.62c1.54,1.19,3.14,2.43,4.75,3.52a7,7,0,0,0,3.9,1.43H214a2.93,2.93,0,0,0,2.64-2.1,11.8,11.8,0,0,0,.49-5.5A30.35,30.35,0,0,0,215,17.19c-.09-.23-.19-.46-.29-.7a14.2,14.2,0,0,1-.91-2.69,6.63,6.63,0,0,1,.16-4c.44-1.09,1.09-1.48,2-1.23a2.35,2.35,0,0,1,1.36,1c1.41,2.1,3,3.12,4.87,3.12a8.23,8.23,0,0,0,3.37-.87,13.93,13.93,0,0,0,5.58-5,11.33,11.33,0,0,0,1.89-4.5l.41-2.15L232.18.06l-.35,0c-.26,0-.52,0-.79,0H2.06C.36,0,0,.72,0,4.07V68.94Z" fill="#1801ab"/><path d="M258.17,2.78l.75,1.72c.55,1.29,1.13,2.62,1.72,3.91a30.93,30.93,0,0,1,2.44,7.33c2,10.93,6.21,18.24,12.81,22.33a20,20,0,0,0,10.58,3.16,23.49,23.49,0,0,0,9.44-2.16c12.37-5.47,22.78-9.77,33.37-13A80.4,80.4,0,0,1,345,22.54c.37,0,.73-.05,1.07-.05A8.28,8.28,0,0,1,350.94,24a8.23,8.23,0,0,1,3.51,6.59,7.26,7.26,0,0,1-1,3.45,9,9,0,0,1-5.28,4.17,16.92,16.92,0,0,1-5.06.83c-.69.05-1.42.09-2.13.17A129.28,129.28,0,0,0,319.65,44c-5,1.47-10,3.17-14.84,5a3.92,3.92,0,0,0-.51.25l-.43.21-2.13,1.07,7.84,7.95-11.14.93-.37,2.71.52.64,1,1.24c.69.85,1.39,1.73,2.1,2.59l-1.87,2.36h156.6l.11-.06a3.13,3.13,0,0,1,1.6-.36c.3,0,.6,0,.91,0a8.68,8.68,0,0,0,1.44,0c6.68-.43,13.22-1,19.73-3.75a12.87,12.87,0,0,0,3.57-2.24,6.92,6.92,0,0,0,2.13-4.79,9.56,9.56,0,0,0-1.5-5.7,13.77,13.77,0,0,0-3-3.35,27.7,27.7,0,0,0-10.3-4.91c-4.72-1.34-9.38-2.45-14.91-3.7l-.07,0c-3.72-.84-7.57-1.72-11.19-4.06a59.82,59.82,0,0,1-6-4.6,30,30,0,0,0-13.84-7c-2.12-.4-4.27-.77-6.35-1.13-3.24-.57-6.6-1.15-9.89-1.84-7.72-1.6-15.7-3.25-23.49-6.58a22.21,22.21,0,0,1-7.84-6.11,2.9,2.9,0,0,1-.19-.22l.19-.23a7.86,7.86,0,0,1,5.09-2.45,24.81,24.81,0,0,1,4.38-.37c4.36,0,8.6,1,13.3,2.15A122.58,122.58,0,0,1,419,14a33.65,33.65,0,0,1,9.12,5.74c3.58,3.18,7.36,4.43,10.94,5.43a94.09,94.09,0,0,0,15,2.7c3.28.36,6.61.67,9.83,1,1.75.17,3.51.33,5.26.51,5,.49,9.57,1.1,13.91,1.86l.61.11A86.86,86.86,0,0,0,498.49,33c.89,0,1.78,0,2.63-.08a11.86,11.86,0,0,0,6.62-2.26c1.22-.91,2.95-2.56,3.83-6.41l.54-2.36-1.32,0a31.59,31.59,0,0,1-8.21-1l.49-.11c2.59-.58,5.26-1.18,7.89-2.05l1.16-.38-.57-2A8,8,0,0,0,507.36,11l-.08-.05a14.74,14.74,0,0,0-6.87-2c-1.05-.07-2.13-.11-3.22-.11a82.59,82.59,0,0,0-18.13,2.48,12.93,12.93,0,0,1-2.94.35,9.88,9.88,0,0,1-7.45-3.38A11,11,0,0,1,466,1.42L465.84.1l-.68,0-.32,0c-.24,0-.49,0-.74,0H259.84c-.25,0-.5,0-.74,0l-.32,0L257,.17Z" fill="#ff003c"/><path d="M302.9,68.94l.21-.26a3.38,3.38,0,0,0,.69-2.13,3.31,3.31,0,0,0-.79-2.21c-.52-.62-1-1.26-1.56-1.9l11.64-1,.28-2.84-6.84-6.94c4.41-1.65,8.9-3.15,13.37-4.48a125.33,125.33,0,0,1,21.19-4.69c.7-.08,1.41-.13,2.1-.17a17.87,17.87,0,0,0,5.32-.89,10.5,10.5,0,0,0,6.06-4.93,12,12,0,0,0,1.54-5.83,12.91,12.91,0,0,0-1.41-6.07,10,10,0,0,0-3.2-3.71A9.22,9.22,0,0,0,346,19.2a11.37,11.37,0,0,0-1.15.06A80.75,80.75,0,0,0,329,22.8c-10.64,3.27-21.08,7.58-33.49,13.06a22.51,22.51,0,0,1-9.07,2.08,18.89,18.89,0,0,1-10.08-3c-6.07-3.76-9.91-10.41-11.75-20.32a34.51,34.51,0,0,0-2.77-8.4c-.57-1.25-1.14-2.57-1.68-3.84L259.44.63l-.25-.57-4.85,0L244.08,0h-.37c-2.64,0-5.28,0-7.92,0l-3.63,0h-.58l-.2,1.07a7.68,7.68,0,0,1-1.33,3,12.23,12.23,0,0,1-5,4.45,7.32,7.32,0,0,1-3,.79c-1.51,0-2.74-.78-3.86-2.45a3.78,3.78,0,0,0-2.13-1.6c-1.45-.43-2.68.43-3.49,2.42a12.71,12.71,0,0,0-.41,7.25,19.17,19.17,0,0,0,1.17,3.57l.27.66a25.8,25.8,0,0,1,1.89,7.12,7,7,0,0,1-.16,2.8A1.44,1.44,0,0,1,214,30a6,6,0,0,1-3.49-1.26c-1.57-1.06-3.16-2.29-4.68-3.47a62.31,62.31,0,0,0-6.64-4.71,15.81,15.81,0,0,0-8-2.58,10.27,10.27,0,0,0-3.41.58c-2.45.86-4.72,2.71-6.92,4.51l-1,.79-.08.06a2.84,2.84,0,0,0-1,2.73c.15,1.64,1,1.9,1.24,2l.11,0a22.74,22.74,0,0,1,6.88,4.79c.32.32.64.65,1,1a21.94,21.94,0,0,0,3.12,2.86c5.45,3.78,11.2,4.47,16.15,4.82.77.06,1.56.09,2.36.09a48.13,48.13,0,0,0,9.75-1.11,41.68,41.68,0,0,0,15-5.89c6-3.93,11.13-5.75,16-5.75.56,0,1.13,0,1.69.07a11.88,11.88,0,0,1,6.6,2.57,10.71,10.71,0,0,1,3.72,6.26c.24,1,0,1.31-.13,1.53A3.19,3.19,0,0,1,260,41.42a1.61,1.61,0,0,1-1.12-.48,16.5,16.5,0,0,0-11.11-4.51c-5.42-.28-11.09,1.14-17.4,4.35l-.42.22c-7.21,3.67-14.66,7.47-22.25,8.12-1.74.15-3.49.23-5.19.23a55.51,55.51,0,0,1-7.67-.53c-3.09-.43-6.23-1.06-9.27-1.66l-2.09-.42c-2.53-.5-5.1-1.06-7.59-1.6l-1.82-.4-4.19-.91c-2.29-.51-4.67-1-7-1.52-1.57-.33-3.16-.62-4.7-.91-1.77-.33-3.59-.67-5.38-1.06a79.59,79.59,0,0,0-10.62-1.68c-1.23-.1-2.44-.14-3.59-.14a35.17,35.17,0,0,0-11.84,1.92c-7.47,2.64-13.11,7.38-17.73,14.91a43.38,43.38,0,0,0-5.07,11.14l-.7,2.45Z" fill="#640086"/><path d="M606.51,57.48c-2.1,1.72-4.06,4.47-6.19,8.65l-1.42,2.81h65.76l-.57-2.36a2.88,2.88,0,0,0-1-1.67l-.14-.12a88.23,88.23,0,0,0-12.5-10.68c-6.16-4.19-11-6.14-15.82-6.3h-.4c-3.42,0-6.72,1.51-9.91,3l-1.44.65a67,67,0,0,0-9.12,5.33l-.84.54a3.91,3.91,0,0,1-2,.81,1.72,1.72,0,0,1-1.23-.55,2.29,2.29,0,0,0-1.6-.75A2.55,2.55,0,0,0,606.51,57.48Z" fill="#fb3703"/><path d="M376.75,11.63a23.47,23.47,0,0,0,8.33,6.48c7.88,3.36,15.9,5,23.67,6.64,3.3.69,6.66,1.27,9.91,1.84,2.08.36,4.23.73,6.34,1.13a29.07,29.07,0,0,1,13.34,6.76,60.74,60.74,0,0,0,6.1,4.72c3.78,2.44,7.71,3.33,11.52,4.2H456c5.52,1.25,10.16,2.36,14.86,3.69a26.6,26.6,0,0,1,9.91,4.7,12.15,12.15,0,0,1,2.57,2.89,4.83,4.83,0,0,1,.87,2.72,3.29,3.29,0,0,1-1.16,2.19,11.08,11.08,0,0,1-3.22,2c-6.38,2.65-12.84,3.26-19.45,3.69a9.81,9.81,0,0,1-1.32,0c-.31,0-.64,0-1,0a4.06,4.06,0,0,0-2.05.48l-5.88,3.23H561.74l.24-.43.07-.14c6.43-4.94,13.09-10,20.4-10.27a9.63,9.63,0,0,0,5.25-1.56c1.81-1.22,2.87-3.6,3.14-7.07a10.39,10.39,0,0,1,1.5-4.84,13.27,13.27,0,0,1,3-3.28A41,41,0,0,1,600.38,38l1.57-.94.89-.53A15.39,15.39,0,0,0,607.39,33l.08-.09a7,7,0,0,0,1.88-5.55c-.22-3.19-1.73-3.87-2.63-4.27l-.16-.07a5.88,5.88,0,0,0-2.54-.52,18.25,18.25,0,0,0-2,.15l-.49.06c-6.15.66-12.47,1.37-19.31,2.17-1.79.21-3.59.46-5.34.69-1.57.21-3.19.43-4.78.62-1.25.15-2.52.36-3.74.56a44.56,44.56,0,0,1-7.17.79,17.93,17.93,0,0,1-2.12-.12,8.09,8.09,0,0,1-5.79-2.63,3.84,3.84,0,0,1-1-2.29,4.89,4.89,0,0,1,.79-2.61,16.3,16.3,0,0,1,3.77-4.2A2.86,2.86,0,0,0,558,13.47a4.1,4.1,0,0,0-.86-2.72,5.54,5.54,0,0,0-.86-1,5.39,5.39,0,0,0-3.92-1.59,9.61,9.61,0,0,0-1.86.2A21.25,21.25,0,0,0,544.37,11c-.55.31-1.12.64-1.68.93-11.07,5.91-21.51,9.19-31.91,10l-.52,0-.21.92a7.43,7.43,0,0,1-2.9,4.68,10.82,10.82,0,0,1-6.09,2c-.83.06-1.7.09-2.57.09A86.71,86.71,0,0,1,483.78,28l-.6-.11c-4.36-.76-8.94-1.38-14-1.88l-5.27-.5c-3.22-.3-6.55-.61-9.82-1a91.81,91.81,0,0,1-14.87-2.66c-3.45-1-7.11-2.17-10.48-5.17a34.94,34.94,0,0,0-9.46-6,123,123,0,0,0-18.74-6.35c-4.76-1.19-9.06-2.18-13.51-2.18a25.55,25.55,0,0,0-4.53.39,9,9,0,0,0-5.77,2.87,4.38,4.38,0,0,0-1.32,3.07A4.39,4.39,0,0,0,376.75,11.63Z" fill="#fb3703"/><path d="M467.89,11.2A10.93,10.93,0,0,0,476.12,15a14.1,14.1,0,0,0,3.13-.37,81.71,81.71,0,0,1,17.94-2.46c1.07,0,2.13,0,3.16.11a13.62,13.62,0,0,1,6.44,1.82l.09,0A5.83,5.83,0,0,1,510.09,18l.27,1,1.4-.36c5.73-1.46,11.66-3,17.34-6.42a50.47,50.47,0,0,0,11-9L542.79.29l-3-.22-.26,0a6,6,0,0,0-.61,0H466a5.86,5.86,0,0,0-.61,0l-.27,0-1,.07L464.31,2C464.67,6,465.87,9.07,467.89,11.2Z" fill="#fb3703"/></g></g></svg>