<svg xmlns="http://www.w3.org/2000/svg" viewBox="0 0 1200 68.97"><g id="Capa_2" data-name="Capa 2"><g id="Capa_1-2" data-name="Capa 1"><path d="M775,22.61l4.22.69a108.34,108.34,0,0,0,17.69,1.95h1.26a184,184,0,0,0,50.45-10.13c.89-.31,1.79-.63,2.65-.95a42.34,42.34,0,0,1,9.11-2.56,21.5,21.5,0,0,1,2.67-.19,9.22,9.22,0,0,1,5,1.27c.17.1.31.2.45.3a22.47,22.47,0,0,0-6,4.43,7.09,7.09,0,0,0-2.14,5.41,6.53,6.53,0,0,0,2.89,4.83c3.27,2.39,6.84,2.82,10.2,3.06,1.12.08,2.25.12,3.46.12A110.19,110.19,0,0,0,888.3,30c1.9-.2,3.87-.41,5.79-.56,2.5-.19,5-.41,7.49-.62,2.73-.24,5.55-.48,8.32-.69,10.68-.8,20.55-1.51,30.17-2.17l.76-.06c1-.07,2-.14,2.94-.14a11.84,11.84,0,0,1,3.39.43l.25.07c1.52.44,2,.72,2.12,1.52s-.37,1.27-1.7,2.29l-.13.1a24,24,0,0,1-6.5,3.2l-1.42.54c-.81.32-1.62.62-2.43.93a75.47,75.47,0,0,0-8.14,3.43,20.28,20.28,0,0,0-5.3,3.75,11.62,11.62,0,0,0-3.29,6.9,5.11,5.11,0,0,1-3.18,4.47A19.49,19.49,0,0,1,910,54.82c-12,.26-23.12,5.75-33,10.58a2,2,0,0,0-.71.65l-2.53,2.89h65.63l.38-.48c3.07-3.87,5.88-6.39,8.83-7.94a3.3,3.3,0,0,1,1.53-.43h0a2.53,2.53,0,0,1,1.36.41,5.61,5.61,0,0,0,3.06.88,10.43,10.43,0,0,0,3.92-1l1.31-.55a129.09,129.09,0,0,1,14-5.24l2.26-.65c5-1.47,10.23-3,15.48-2.88,7.18.16,14.56,2,23.92,6.13a138.61,138.61,0,0,1,19.2,10.5l.34.2a1.38,1.38,0,0,1,.27.16l.32.86h31.21c42,0,86.74,0,130.64,0a2.19,2.19,0,0,0,1.9-.77,3.75,3.75,0,0,0,.6-2.39c0-17.51,0-35.3,0-52.51V0H845.41c-.48,0-1,0-1.43,0l-.65,0H843l-.28.2A79.58,79.58,0,0,1,826,9c-8.66,3.36-17.82,4.86-26.67,6.3l-1.3.21h0c-4,.85-8.18,1.45-12.19,2l-4.16.61-.9.13c-1.88.28-3.83.57-5.76,1l-8,2Z" fill="#ffc000"/><path d="M164.26,68.94l.37-.84a36,36,0,0,1,7.3-10.21c6.87-7.16,15.3-11.68,26.51-14.21a81.23,81.23,0,0,1,18-1.88c1.77,0,3.62.05,5.51.14,5.65.27,11.23,1,16.41,1.67,2.82.39,5.68.73,8.44,1.06,2.4.29,4.88.58,7.32.91,3.64.48,7.35,1,10.93,1.51l6.54.92,2.84.39c3.89.55,7.92,1.11,11.89,1.61l3.28.41c4.76.62,9.69,1.25,14.56,1.68,4,.35,8.05.53,12.16.53,2.69,0,5.46-.07,8.22-.23,12.13-.67,23.91-4.51,35.3-8.22l.66-.22c9.62-3.13,18.27-4.52,26.48-4.25,6.74.22,11.77,1.52,16.31,4.21a5.54,5.54,0,0,0,2.86.78,7.9,7.9,0,0,0,5-2c1.54-1.28,2-3.39,1.13-5.65a13.91,13.91,0,0,0-7.2-7.93,27.85,27.85,0,0,0-11.17-2.8c-.91-.05-1.84-.08-2.76-.08-7.87,0-16.07,1.88-25.79,5.92a87.25,87.25,0,0,1-22.84,5.74,113.9,113.9,0,0,1-15,1.09c-1.22,0-2.42,0-3.59-.08-7.56-.34-16.3-1-24.46-4.64A31.64,31.64,0,0,1,295,31.58c-.51-.34-1-.68-1.54-1A41.73,41.73,0,0,0,283.85,26a42.35,42.35,0,0,1,10.06-4.2,22.59,22.59,0,0,1,4.88-.53,33.08,33.08,0,0,1,11.73,2.45,107.74,107.74,0,0,1,10.16,4.62c2.42,1.19,4.92,2.43,7.43,3.52a15.13,15.13,0,0,0,6.09,1.43h.25a4.7,4.7,0,0,0,4.11-2.1,7.9,7.9,0,0,0,.77-5.5,22.25,22.25,0,0,0-3.46-8.53l-.44-.7A10.89,10.89,0,0,1,334,13.8c-.68-2.17-.18-3.32.25-4a2.67,2.67,0,0,1,3-1.23,4,4,0,0,1,2.14,1,10.57,10.57,0,0,0,7.6,3.12,19,19,0,0,0,5.27-.87,21.41,21.41,0,0,0,8.71-5,9.82,9.82,0,0,0,3-4.5l.64-2.15L362.79.06l-.55,0c-.41,0-.83,0-1.25,0H3.21C.57,0,0,.72,0,4.07V68.94Z" fill="#1801ab"/><path d="M403.4,2.78l1.16,1.72c.87,1.29,1.77,2.62,2.69,3.91a24.53,24.53,0,0,1,3.81,7.33c3.16,10.93,9.71,18.24,20,22.33a44.69,44.69,0,0,0,16.53,3.16,54.63,54.63,0,0,0,14.75-2.16c19.33-5.47,35.59-9.77,52.15-13A187.49,187.49,0,0,1,539,22.54c.57,0,1.13-.05,1.67-.05A18.44,18.44,0,0,1,548.35,24a10.48,10.48,0,0,1,4,3,5.8,5.8,0,0,1,1.43,3.63,5.45,5.45,0,0,1-1.54,3.45c-2.3,2.57-5.21,3.44-8.24,4.17a40.24,40.24,0,0,1-7.9.83c-1.09.05-2.22.09-3.34.17A302.11,302.11,0,0,0,499.45,44c-7.76,1.47-15.56,3.17-23.19,5-.24.06-.48.14-.8.25l-.66.21-3.33,1.07,12.24,7.95-17.4.93-.57,2.71.81.64L468.09,64c1.07.85,2.17,1.73,3.28,2.59l-2.91,2.36H713.14l.17-.06a7.28,7.28,0,0,1,2.51-.36c.46,0,.93,0,1.42,0a21.15,21.15,0,0,0,2.25,0c10.44-.43,20.65-1,30.83-3.75a23.76,23.76,0,0,0,5.57-2.24,6.2,6.2,0,0,0,3.32-4.79,7.09,7.09,0,0,0-2.34-5.7,18.49,18.49,0,0,0-4.63-3.35c-5.25-2.7-10.84-4-16.1-4.91-7.38-1.34-14.65-2.45-23.3-3.7l-.1,0c-5.82-.84-11.84-1.72-17.49-4.06a101.17,101.17,0,0,1-9.32-4.6,60,60,0,0,0-21.62-7c-3.31-.4-6.67-.77-9.92-1.13-5.07-.57-10.31-1.15-15.45-1.84-12.06-1.6-24.53-3.25-36.7-6.58A37.15,37.15,0,0,1,590,8.79l-.3-.22.31-.23c2.34-1.7,5-2.11,7.94-2.45a60.39,60.39,0,0,1,6.85-.37c6.81,0,13.44,1,20.78,2.15A271.42,271.42,0,0,1,654.62,14a62.2,62.2,0,0,1,14.26,5.74c5.58,3.18,11.5,4.43,17.09,5.43a223.13,223.13,0,0,0,23.45,2.7c5.12.36,10.32.67,15.36,1l8.22.51c7.84.49,15,1.1,21.74,1.86l.94.11A209.69,209.69,0,0,0,778.88,33c1.41,0,2.79,0,4.12-.08a26,26,0,0,0,10.35-2.26,10.89,10.89,0,0,0,6-6.41l.84-2.36-2,0a75.93,75.93,0,0,1-12.84-1l.77-.11c4-.58,8.22-1.18,12.32-2.05l1.81-.38-.88-2c-1.52-3.46-4.19-4.5-6.54-5.41l-.13-.05a33.27,33.27,0,0,0-10.75-2c-1.63-.07-3.32-.11-5-.11a197.6,197.6,0,0,0-28.32,2.48,31.42,31.42,0,0,1-4.59.35A20.1,20.1,0,0,1,732.3,8.3a9.4,9.4,0,0,1-4.24-6.88L727.87.1l-1.06,0-.5,0c-.38,0-.76,0-1.15,0H406c-.39,0-.77,0-1.14,0l-.51,0-2.72.11Z" fill="#ff003c"/><path d="M473.28,68.94l.32-.26a2.63,2.63,0,0,0,1.08-2.13,2.77,2.77,0,0,0-1.23-2.21c-.81-.62-1.62-1.26-2.43-1.9l18.19-1,.43-2.84L479,51.68c6.89-1.65,13.91-3.15,20.89-4.48A293.21,293.21,0,0,1,533,42.51c1.08-.08,2.2-.13,3.27-.17a42.4,42.4,0,0,0,8.31-.89c3.26-.79,6.68-1.82,9.48-4.93a9,9,0,0,0,2.41-5.83,9.35,9.35,0,0,0-2.21-6.07,13.1,13.1,0,0,0-5-3.71,20.42,20.42,0,0,0-8.54-1.71c-.58,0-1.18,0-1.79.06a188.62,188.62,0,0,0-24.77,3.54c-16.62,3.27-32.94,7.58-52.32,13.06a52.4,52.4,0,0,1-14.18,2.08,42.37,42.37,0,0,1-15.75-3c-9.49-3.76-15.49-10.41-18.36-20.32a27.3,27.3,0,0,0-4.32-8.4c-.9-1.25-1.78-2.57-2.64-3.84L405.37.63,405,.06,397.4,0l-16,0h-.57q-6.19,0-12.38,0l-5.67,0h-.9l-.32,1.07a6.86,6.86,0,0,1-2.08,3,18.8,18.8,0,0,1-7.74,4.45,16.71,16.71,0,0,1-4.68.79,8.28,8.28,0,0,1-6-2.45,6.36,6.36,0,0,0-3.33-1.6,5,5,0,0,0-5.44,2.42,8.39,8.39,0,0,0-.65,7.25,14.25,14.25,0,0,0,1.83,3.57l.42.66a19.08,19.08,0,0,1,2.95,7.12,4.54,4.54,0,0,1-.25,2.8,2.55,2.55,0,0,1-2.13.89A13,13,0,0,1,329,28.78c-2.45-1.06-4.93-2.29-7.32-3.47a107.8,107.8,0,0,0-10.37-4.71A35.18,35.18,0,0,0,298.79,18a24.18,24.18,0,0,0-5.33.58,45.2,45.2,0,0,0-10.82,4.51l-1.51.79L281,24a2.39,2.39,0,0,0-1.55,2.73,2.19,2.19,0,0,0,1.94,2l.16,0a40,40,0,0,1,10.75,4.79l1.5,1a33.24,33.24,0,0,0,4.87,2.86c8.52,3.78,17.49,4.47,25.23,4.82,1.2.06,2.44.09,3.69.09a116.42,116.42,0,0,0,15.24-1.11,89.46,89.46,0,0,0,23.39-5.89c9.45-3.93,17.38-5.75,25-5.75.88,0,1.77,0,2.65.07a25.29,25.29,0,0,1,10.31,2.57A11.12,11.12,0,0,1,410,38.4c.38,1,.05,1.31-.2,1.53a5.79,5.79,0,0,1-3.56,1.49,3.4,3.4,0,0,1-1.76-.48c-4.87-2.89-10.22-4.28-17.35-4.51-8.46-.28-17.33,1.14-27.19,4.35l-.66.22c-11.26,3.67-22.9,7.47-34.76,8.12-2.73.15-5.46.23-8.11.23-4.05,0-8.07-.18-12-.53-4.83-.43-9.74-1.06-14.48-1.66l-3.28-.42c-3.95-.5-8-1.06-11.86-1.6l-2.85-.4-6.53-.91c-3.59-.51-7.3-1-10.95-1.52-2.45-.33-4.94-.62-7.34-.91-2.76-.33-5.61-.67-8.41-1.06-5.23-.71-10.86-1.41-16.59-1.68-1.92-.1-3.81-.14-5.61-.14A83.53,83.53,0,0,0,198,40.44c-11.67,2.64-20.47,7.38-27.71,14.91a39.14,39.14,0,0,0-7.91,11.14l-1.09,2.45Z" fill="#640086"/><path d="M947.67,57.48c-3.28,1.72-6.35,4.47-9.67,8.65l-2.23,2.81h102.77l-.89-2.36a3.06,3.06,0,0,0-1.54-1.67l-.22-.12a141.69,141.69,0,0,0-19.52-10.68c-9.63-4.19-17.26-6.14-24.73-6.3H991c-5.34,0-10.5,1.51-15.49,3l-2.25.65A128.13,128.13,0,0,0,959,56.75l-1.31.54a8.34,8.34,0,0,1-3.1.81,3.51,3.51,0,0,1-1.91-.55,4.73,4.73,0,0,0-2.51-.75A5.37,5.37,0,0,0,947.67,57.48Z" fill="#fb3703"/><path d="M588.67,11.63a39.37,39.37,0,0,0,13,6.48c12.3,3.36,24.85,5,37,6.64,5.16.69,10.41,1.27,15.49,1.84,3.25.36,6.6.73,9.9,1.13a58.14,58.14,0,0,1,20.84,6.76,103.44,103.44,0,0,0,9.54,4.72c5.9,2.44,12,3.33,18,4.2h.1c8.63,1.25,15.88,2.36,23.23,3.69,5.09.92,10.49,2.13,15.48,4.7a16.07,16.07,0,0,1,4,2.89,3.73,3.73,0,0,1,1.37,2.72,3.2,3.2,0,0,1-1.81,2.19,20.9,20.9,0,0,1-5,2c-10,2.65-20.06,3.26-30.39,3.69-.67,0-1.34,0-2.06,0-.49,0-1,0-1.51,0a9.25,9.25,0,0,0-3.2.48l-9.19,3.23H877.72l.37-.43a.76.76,0,0,0,.11-.14c10.06-4.94,20.46-10,31.87-10.27a21.48,21.48,0,0,0,8.21-1.56c2.83-1.22,4.48-3.6,4.91-7.07a8.05,8.05,0,0,1,2.35-4.84,17.74,17.74,0,0,1,4.65-3.28,74.81,74.81,0,0,1,7.9-3.32l2.45-.94,1.4-.53A25.86,25.86,0,0,0,949.05,33l.13-.09c1.3-1,3.26-2.5,2.93-5.55S949.4,23.5,948,23.1l-.24-.07a13.76,13.76,0,0,0-4-.52c-1,0-2.08.08-3.09.15l-.75.06c-9.62.66-19.49,1.37-30.18,2.17-2.79.21-5.62.46-8.35.69-2.45.21-5,.43-7.47.62-1.95.15-3.93.36-5.84.56a107.31,107.31,0,0,1-11.2.79c-1.16,0-2.24,0-3.31-.12-3.05-.21-6.27-.6-9-2.63a3.44,3.44,0,0,1-1.61-2.29,3.85,3.85,0,0,1,1.24-2.61,21.76,21.76,0,0,1,5.9-4.2,2.86,2.86,0,0,0,1.8-2.23,3.3,3.3,0,0,0-1.33-2.72,7.45,7.45,0,0,0-1.36-1,11.23,11.23,0,0,0-6.11-1.59,23.46,23.46,0,0,0-2.92.2A44.52,44.52,0,0,0,850.58,11c-.86.31-1.75.64-2.62.93a181.73,181.73,0,0,1-49.87,10l-.81,0-.33.92a7.94,7.94,0,0,1-4.52,4.68,23.76,23.76,0,0,1-9.52,2c-1.3.06-2.65.09-4,.09a209.06,209.06,0,0,1-23-1.72l-.94-.11c-6.82-.76-14-1.38-21.84-1.88l-8.23-.5c-5-.3-10.23-.61-15.33-1a218,218,0,0,1-23.24-2.66c-5.4-1-11.11-2.17-16.38-5.17a64.39,64.39,0,0,0-14.77-6,272.94,272.94,0,0,0-29.3-6.35c-7.42-1.19-14.14-2.18-21.1-2.18a62,62,0,0,0-7.08.39c-3.15.36-6.21.85-9,2.87-1.05.75-2.07,1.61-2.07,3.07A4,4,0,0,0,588.67,11.63Z" fill="#fb3703"/><path d="M731.07,11.2A22.27,22.27,0,0,0,743.94,15a33.92,33.92,0,0,0,4.89-.37,195.75,195.75,0,0,1,28-2.46c1.67,0,3.33,0,4.93.11a30.79,30.79,0,0,1,10.07,1.82l.14,0c2.15.84,4,1.56,5,3.86l.42,1,2.19-.36c9-1.46,18.22-3,27.09-6.42a81.88,81.88,0,0,0,17.26-9L848.11.29l-4.7-.22L843,0c-.31,0-.63,0-1,0H728.09c-.33,0-.65,0-1,0l-.41,0-1.49.07L725.49,2A12.74,12.74,0,0,0,731.07,11.2Z" fill="#fb3703"/></g></g></svg>