<svg xmlns="http://www.w3.org/2000/svg" viewBox="0 0 1400 68.97"><g id="Capa_2" data-name="Capa 2"><g id="Capa_1-2" data-name="Capa 1"><path d="M904.18,22.61c1.65.22,3.29.45,4.93.69a146.77,146.77,0,0,0,20.65,1.95h1.47a246.39,246.39,0,0,0,58.85-10.13l3.1-.95a55.78,55.78,0,0,1,10.62-2.56,29.19,29.19,0,0,1,3.11-.19,12.23,12.23,0,0,1,5.82,1.27l.52.3a26.65,26.65,0,0,0-7,4.43c-2.26,2.1-2.6,4.1-2.49,5.41s.79,3.2,3.38,4.83c3.81,2.39,8,2.82,11.9,3.06,1.3.08,2.61.12,4,.12,4.47,0,9-.4,13.32-.79,2.22-.2,4.51-.41,6.76-.56,2.91-.19,5.87-.41,8.73-.62,3.18-.24,6.47-.48,9.71-.69,12.47-.8,24-1.51,35.19-2.17l.9-.06c1.13-.07,2.3-.14,3.43-.14a16,16,0,0,1,4,.43l.3.07c1.76.44,2.36.72,2.47,1.52s-.44,1.27-2,2.29l-.15.1a30.11,30.11,0,0,1-7.58,3.2l-1.66.54-2.84.93a96.66,96.66,0,0,0-9.49,3.43,23.78,23.78,0,0,0-6.18,3.75,11,11,0,0,0-3.84,6.9,5.23,5.23,0,0,1-3.71,4.47,26.18,26.18,0,0,1-8.65,1.39c-14,.26-27,5.75-38.46,10.58a2.27,2.27,0,0,0-.82.65l-2.95,2.89H1096l.44-.48a32.26,32.26,0,0,1,10.3-7.94,4.35,4.35,0,0,1,1.78-.43h0a3.37,3.37,0,0,1,1.6.41,7.31,7.31,0,0,0,3.56.88,13.77,13.77,0,0,0,4.57-1l1.53-.55a167.26,167.26,0,0,1,16.35-5.24l2.63-.65c5.87-1.47,11.94-3,18.07-2.88,8.38.16,17,2,27.9,6.13a171.09,171.09,0,0,1,22.4,10.5l.4.2a1.79,1.79,0,0,1,.31.16l.38.86h36.41c49,0,101.2,0,152.41,0a2.78,2.78,0,0,0,2.22-.77,3.34,3.34,0,0,0,.7-2.39c0-17.51,0-35.3,0-52.51V0H986.31c-.56,0-1.13,0-1.67,0l-.76,0h-.37l-.32.2A99,99,0,0,1,963.62,9c-10.11,3.36-20.78,4.86-31.11,6.3l-1.52.21h-.06c-4.7.85-9.54,1.45-14.22,2l-4.86.61-1.05.13c-2.19.28-4.46.57-6.72,1l-9.39,2Z" fill="#ffc000"/><path d="M191.64,68.94l.43-.84a36.47,36.47,0,0,1,8.52-10.21c8-7.16,17.84-11.68,30.92-14.21a110.09,110.09,0,0,1,21.05-1.88c2.06,0,4.23.05,6.43.14,6.59.27,13.1,1,19.15,1.67,3.28.39,6.62.73,9.84,1.06,2.8.29,5.7.58,8.54.91,4.25.48,8.57,1,12.75,1.51l7.63.92,3.31.39c4.55.55,9.25,1.11,13.88,1.61l3.82.41c5.56.62,11.31,1.25,17,1.68,4.63.35,9.4.53,14.18.53,3.15,0,6.38-.07,9.6-.23,14.15-.67,27.89-4.51,41.18-8.22l.77-.22c11.23-3.13,21.31-4.52,30.89-4.25,7.87.22,13.74,1.52,19,4.21a7.31,7.31,0,0,0,3.33.78,10.13,10.13,0,0,0,5.83-2C481.5,41.39,482,39.28,481,37c-1.53-3.58-4.2-6.09-8.39-7.93a36.84,36.84,0,0,0-13-2.8c-1.06-.05-2.15-.08-3.22-.08-9.19,0-18.75,1.88-30.09,5.92a115.83,115.83,0,0,1-26.64,5.74A155.06,155.06,0,0,1,382.18,39c-1.42,0-2.83,0-4.19-.08-8.82-.34-19-1-28.54-4.64a38.4,38.4,0,0,1-5.28-2.66l-1.79-1A52.92,52.92,0,0,0,331.16,26a54.35,54.35,0,0,1,11.74-4.2,30.49,30.49,0,0,1,5.69-.53,44.29,44.29,0,0,1,13.69,2.45c4,1.28,8,3,11.85,4.62,2.82,1.19,5.73,2.43,8.67,3.52a20.09,20.09,0,0,0,7.1,1.43h.29a5.77,5.77,0,0,0,4.79-2.1,6.89,6.89,0,0,0,.91-5.5,20.72,20.72,0,0,0-4-8.53l-.52-.7a10.71,10.71,0,0,1-1.66-2.69c-.78-2.17-.21-3.32.3-4a3.36,3.36,0,0,1,3.54-1.23,5.1,5.1,0,0,1,2.49,1,13.46,13.46,0,0,0,8.87,3.12A25.5,25.5,0,0,0,411,11.8a26.18,26.18,0,0,0,10.17-5,10,10,0,0,0,3.45-4.5l.74-2.15L423.25.06l-.64,0c-.47,0-1,0-1.45,0H3.75C.67,0,0,.72,0,4.07V68.94Z" fill="#1801ab"/><path d="M470.63,2.78,472,4.5c1,1.29,2.06,2.62,3.13,3.91a23.37,23.37,0,0,1,4.45,7.33C483.26,26.67,490.9,34,502.93,38.07a59.82,59.82,0,0,0,19.29,3.16,73.57,73.57,0,0,0,17.2-2.16C562,33.6,581,29.3,600.26,26.05a252.9,252.9,0,0,1,28.57-3.51c.67,0,1.33-.05,1.95-.05a24.65,24.65,0,0,1,9,1.52,12.26,12.26,0,0,1,4.72,3,5.37,5.37,0,0,1,1.67,3.63,5.14,5.14,0,0,1-1.79,3.45c-2.69,2.57-6.08,3.44-9.61,4.17a54.6,54.6,0,0,1-9.22.83c-1.28.05-2.6.09-3.9.17-14.15.89-28.23,3-38.91,4.73-9.06,1.47-18.16,3.17-27.06,5-.29.06-.56.14-.93.25l-.77.21-3.89,1.07,14.28,7.95L544,59.4l-.67,2.71.95.64,1.8,1.24c1.25.85,2.53,1.73,3.82,2.59l-3.4,2.36H832l.2-.06a9.77,9.77,0,0,1,2.92-.36c.54,0,1.09,0,1.66,0,.85,0,1.78.07,2.63,0,12.17-.43,24.08-1,36-3.75a30.45,30.45,0,0,0,6.5-2.24c2.28-1.12,3.66-2.81,3.88-4.79s-.75-4-2.73-5.7a21.86,21.86,0,0,0-5.41-3.35c-6.12-2.7-12.65-4-18.79-4.91-8.6-1.34-17.08-2.45-27.17-3.7l-.12,0c-6.79-.84-13.81-1.72-20.41-4.06-3.81-1.35-7.61-3.09-10.87-4.6a78.44,78.44,0,0,0-25.22-7c-3.86-.4-7.78-.77-11.57-1.13-5.92-.57-12-1.15-18-1.84-14.07-1.6-28.62-3.25-42.82-6.58a46.67,46.67,0,0,1-14.3-6.11L688,8.57l.36-.23c2.73-1.7,5.81-2.11,9.27-2.45,2.57-.25,5.18-.37,8-.37,7.94,0,15.67,1,24.24,2.15,11.66,1.61,23.06,3.73,33.9,6.3a80.06,80.06,0,0,1,16.64,5.74c6.51,3.18,13.42,4.43,19.93,5.43,9.74,1.5,19.3,2.2,27.37,2.7,6,.36,12,.67,17.91,1,3.2.17,6.4.33,9.6.51,9.15.49,17.44,1.1,25.36,1.86l1.1.11c8.85.85,18,1.73,27.07,1.73,1.63,0,3.25,0,4.8-.08a34.51,34.51,0,0,0,12.07-2.26,11.88,11.88,0,0,0,7-6.41l1-2.36-2.39,0a103.09,103.09,0,0,1-15-1l.9-.11c4.71-.58,9.59-1.18,14.37-2.05l2.12-.38-1-2c-1.76-3.46-4.88-4.5-7.63-5.41l-.15-.05A44.53,44.53,0,0,0,912.2,9c-1.91-.07-3.88-.11-5.87-.11a267.9,267.9,0,0,0-33,2.48,42.59,42.59,0,0,1-5.36.35A26.39,26.39,0,0,1,854.35,8.3a9.34,9.34,0,0,1-5-6.88L849.19.1,848,.06l-.59,0c-.44,0-.88,0-1.34,0H473.66c-.46,0-.9,0-1.34,0l-.59,0-3.18.11Z" fill="#ff003c"/><path d="M552.17,68.94l.37-.26a2.55,2.55,0,0,0,1.26-2.13,2.77,2.77,0,0,0-1.44-2.21c-.94-.62-1.89-1.26-2.83-1.9l21.21-1,.51-2.84-12.47-6.94c8-1.65,16.22-3.15,24.37-4.48,11.28-1.83,24.69-3.82,38.64-4.69,1.26-.08,2.56-.13,3.81-.17a57.57,57.57,0,0,0,9.7-.89c3.8-.79,7.79-1.82,11.05-4.93a8.36,8.36,0,0,0,2.82-5.83,8.56,8.56,0,0,0-2.58-6.07,15.25,15.25,0,0,0-5.84-3.71,27.33,27.33,0,0,0-10-1.71c-.67,0-1.38,0-2.09.06a255.06,255.06,0,0,0-28.9,3.54c-19.39,3.27-38.43,7.58-61,13.06a70.53,70.53,0,0,1-16.53,2.08,56.71,56.71,0,0,1-18.38-3c-11.07-3.76-18.07-10.41-21.42-20.32a26.45,26.45,0,0,0-5-8.4C476.33,5,475.3,3.64,474.3,2.37L472.93.63l-.45-.57-8.85,0-18.7,0h-.67Q437,0,429.82,0l-6.61,0h-1.06l-.36,1.07a7,7,0,0,1-2.43,3,23.11,23.11,0,0,1-9,4.45,22.45,22.45,0,0,1-5.46.79,10.57,10.57,0,0,1-7-2.45A7.94,7.94,0,0,0,394,5.33a6.24,6.24,0,0,0-6.35,2.42c-1,1.4-2,3.79-.75,7.25A13.36,13.36,0,0,0,389,18.57l.49.66a17.59,17.59,0,0,1,3.43,7.12,3.82,3.82,0,0,1-.28,2.8,3.24,3.24,0,0,1-2.49.89,17.32,17.32,0,0,1-6.35-1.26c-2.87-1.06-5.75-2.29-8.54-3.47-3.91-1.67-8-3.39-12.1-4.71A47.09,47.09,0,0,0,348.59,18a32.71,32.71,0,0,0-6.22.58,57.76,57.76,0,0,0-12.62,4.51L328,23.9l-.17.06A2.34,2.34,0,0,0,326,26.69a2.45,2.45,0,0,0,2.26,2l.2,0A50.9,50.9,0,0,1,341,33.5c.59.32,1.17.65,1.75,1a40.89,40.89,0,0,0,5.69,2.86c9.93,3.78,20.4,4.47,29.44,4.82,1.4.06,2.84.09,4.3.09A158.1,158.1,0,0,0,400,41.14a118.63,118.63,0,0,0,27.28-5.89c11-3.93,20.29-5.75,29.14-5.75,1,0,2.07,0,3.08.07a33.47,33.47,0,0,1,12,2.57c3.44,1.5,5.59,3.49,6.78,6.26.45,1,.07,1.31-.23,1.53a7.38,7.38,0,0,1-4.16,1.49,4.41,4.41,0,0,1-2-.48c-5.69-2.89-11.93-4.28-20.24-4.51-9.88-.28-20.23,1.14-31.73,4.35l-.77.22c-13.13,3.67-26.72,7.47-40.55,8.12-3.18.15-6.37.23-9.47.23-4.71,0-9.41-.18-14-.53-5.63-.43-11.36-1.06-16.9-1.66l-3.82-.42c-4.61-.5-9.3-1.06-13.83-1.6l-3.33-.4-7.62-.91c-4.18-.51-8.51-1-12.78-1.52-2.85-.33-5.75-.62-8.56-.91-3.22-.33-6.54-.67-9.81-1.06-6.1-.71-12.67-1.41-19.36-1.68-2.24-.1-4.44-.14-6.54-.14A113.16,113.16,0,0,0,231,40.44c-13.62,2.64-23.89,7.38-32.33,14.91a39.74,39.74,0,0,0-9.23,11.14l-1.27,2.45Z" fill="#640086"/><path d="M1105.62,57.48c-3.83,1.72-7.41,4.47-11.28,8.65l-2.6,2.81h119.89l-1-2.36a3.35,3.35,0,0,0-1.8-1.67l-.25-.12a175.65,175.65,0,0,0-22.78-10.68c-11.23-4.19-20.13-6.14-28.84-6.3h-.73c-6.23,0-12.25,1.51-18.07,3l-2.62.65a165.32,165.32,0,0,0-16.63,5.33l-1.53.54a11,11,0,0,1-3.62.81,4.6,4.6,0,0,1-2.23-.55,6.2,6.2,0,0,0-2.93-.75A7.05,7.05,0,0,0,1105.62,57.48Z" fill="#fb3703"/><path d="M686.78,11.63A49.32,49.32,0,0,0,702,18.11c14.36,3.36,29,5,43.14,6.64,6,.69,12.15,1.27,18.07,1.84,3.79.36,7.71.73,11.56,1.13a76,76,0,0,1,24.31,6.76c3.32,1.55,7.19,3.32,11.13,4.72,6.88,2.44,14.06,3.33,21,4.2h.12c10.06,1.25,18.52,2.36,27.09,3.69,6,.92,12.25,2.13,18.07,4.7a18.89,18.89,0,0,1,4.68,2.89,3.58,3.58,0,0,1,1.59,2.72c-.08.78-.85,1.58-2.11,2.19a26.71,26.71,0,0,1-5.88,2c-11.63,2.65-23.4,3.26-35.45,3.69-.79,0-1.57,0-2.4,0-.58,0-1.17,0-1.77,0a12.47,12.47,0,0,0-3.73.48l-10.73,3.23H1024l.44-.43.13-.14c11.73-4.94,23.86-10,37.18-10.27a28.77,28.77,0,0,0,9.58-1.56,8.36,8.36,0,0,0,5.73-7.07,7.62,7.62,0,0,1,2.73-4.84,21,21,0,0,1,5.44-3.28,94.7,94.7,0,0,1,9.21-3.32l2.86-.94,1.63-.53a32.62,32.62,0,0,0,8.3-3.55l.14-.09c1.52-1,3.81-2.5,3.42-5.55s-3.15-3.87-4.8-4.27l-.28-.07a18.59,18.59,0,0,0-4.64-.52c-1.22,0-2.43.08-3.61.15l-.88.06c-11.22.66-22.73,1.37-35.21,2.17-3.25.21-6.55.46-9.74.69-2.85.21-5.8.43-8.71.62-2.28.15-4.59.36-6.82.56-4.29.39-8.72.79-13.07.79-1.35,0-2.61,0-3.85-.12-3.57-.21-7.32-.6-10.55-2.63a3.46,3.46,0,0,1-1.88-2.29,3.61,3.61,0,0,1,1.45-2.61,25.91,25.91,0,0,1,6.88-4.2c.78-.36,1.95-.91,2.1-2.23a3.17,3.17,0,0,0-1.55-2.72,9.18,9.18,0,0,0-1.58-1,14.89,14.89,0,0,0-7.14-1.59,31.82,31.82,0,0,0-3.4.2A59.08,59.08,0,0,0,992.34,11c-1,.31-2,.64-3.05.93A243.41,243.41,0,0,1,931.1,22l-.94,0-.38.92c-.87,2.11-2.5,3.55-5.28,4.68a31.62,31.62,0,0,1-11.1,2c-1.52.06-3.1.09-4.7.09-8.94,0-18-.88-26.8-1.72l-1.1-.11c-8-.76-16.29-1.38-25.48-1.88l-9.6-.5c-5.87-.3-11.93-.61-17.89-1-8-.48-17.49-1.18-27.11-2.66-6.3-1-13-2.17-19.11-5.17a82.5,82.5,0,0,0-17.24-6C753.45,8.17,742,6,730.2,4.41c-8.67-1.19-16.5-2.18-24.62-2.18-2.9,0-5.6.13-8.27.39-3.67.36-7.24.85-10.5,2.87-1.22.75-2.4,1.61-2.41,3.07S685.83,11,686.78,11.63Z" fill="#fb3703"/><path d="M852.92,11.2a29.16,29.16,0,0,0,15,3.77,46.15,46.15,0,0,0,5.71-.37,265.36,265.36,0,0,1,32.69-2.46c1.95,0,3.89,0,5.76.11a41.3,41.3,0,0,1,11.75,1.82l.15,0c2.52.84,4.69,1.56,5.86,3.86l.5,1,2.55-.36c10.45-1.46,21.26-3,31.61-6.42a102.16,102.16,0,0,0,20.14-9L989.46.29,984,.07l-.48,0c-.36,0-.73,0-1.12,0H849.44c-.38,0-.76,0-1.11,0l-.48,0-1.74.07.3,1.86A12.61,12.61,0,0,0,852.92,11.2Z" fill="#fb3703"/></g></g></svg>