<svg xmlns="http://www.w3.org/2000/svg" viewBox="0 0 1200 63"><g id="Capa_2" data-name="Capa 2"><g id="Capa_1-2" data-name="Capa 1"><path d="M775,20.65l4.22.63a117.82,117.82,0,0,0,17.7,1.79l1.25,0a199.19,199.19,0,0,0,50.45-9.25l2.65-.86a45.23,45.23,0,0,1,9.11-2.34,23.13,23.13,0,0,1,2.67-.17,9.86,9.86,0,0,1,5,1.15c.17.09.31.18.45.27a22.52,22.52,0,0,0-6,4.05,6.17,6.17,0,0,0-2.14,4.94,5.85,5.85,0,0,0,2.89,4.41c3.27,2.19,6.84,2.59,10.2,2.81,1.12.07,2.25.1,3.46.1,3.83,0,7.68-.37,11.41-.72,1.9-.19,3.87-.38,5.79-.51,2.5-.18,5-.38,7.49-.57,2.73-.21,5.55-.44,8.32-.63,10.68-.73,20.55-1.38,30.17-2l.76-.05c1-.07,2-.13,2.94-.13a12.69,12.69,0,0,1,3.39.39l.25.06c1.52.4,2,.66,2.12,1.39s-.37,1.16-1.7,2.09l-.13.09a25.17,25.17,0,0,1-6.5,2.93l-1.42.49-2.43.85A81.41,81.41,0,0,0,929.21,35a20.74,20.74,0,0,0-5.3,3.43,10.28,10.28,0,0,0-3.29,6.3,4.7,4.7,0,0,1-3.18,4.08A20.89,20.89,0,0,1,910,50.07c-12,.25-23.12,5.25-33,9.67a1.94,1.94,0,0,0-.71.59L873.83,63h65.63l.38-.44a27.9,27.9,0,0,1,8.83-7.25,3.49,3.49,0,0,1,1.53-.4h0a2.69,2.69,0,0,1,1.36.39,6.08,6.08,0,0,0,3.06.8,11.2,11.2,0,0,0,3.92-.89l1.31-.5a135.17,135.17,0,0,1,14-4.78l2.26-.6c5-1.35,10.23-2.73,15.48-2.63,7.18.15,14.56,1.87,23.92,5.6a143.66,143.66,0,0,1,19.2,9.58l.34.19.27.14.32.79h31.21c42,0,86.74,0,130.64,0a2.3,2.3,0,0,0,1.9-.7,3.22,3.22,0,0,0,.6-2.19c0-16,0-32.24,0-48V0H845.41c-.48,0-1,0-1.43,0l-.65,0H843l-.28.17a82.92,82.92,0,0,1-16.77,8c-8.66,3.07-17.82,4.43-26.67,5.75l-1.3.2h0c-4,.77-8.18,1.32-12.19,1.84l-4.16.55-.9.13c-1.88.25-3.83.52-5.76,1l-8,1.79Z" fill="#ffc000"/><path d="M164.26,63l.37-.77a33.06,33.06,0,0,1,7.3-9.32c6.87-6.55,15.3-10.67,26.51-13a88,88,0,0,1,18-1.72c1.77,0,3.62,0,5.51.13,5.65.25,11.23.88,16.41,1.53,2.82.35,5.68.66,8.44,1,2.4.26,4.88.54,7.32.83,3.64.44,7.35.92,10.93,1.38l6.54.84,2.84.36c3.89.5,7.92,1,11.89,1.47l3.28.38c4.76.56,9.69,1.13,14.56,1.53,4,.32,8.05.49,12.16.49,2.69,0,5.46-.07,8.22-.21,12.13-.61,23.91-4.12,35.3-7.51l.66-.2A83.46,83.46,0,0,1,387,36.27c6.74.21,11.77,1.39,16.31,3.85a6,6,0,0,0,2.86.71,8.34,8.34,0,0,0,5-1.85,4.19,4.19,0,0,0,1.13-5.17,13.18,13.18,0,0,0-7.2-7.23A29.8,29.8,0,0,0,393.94,24c-.91,0-1.84-.07-2.76-.07-7.87,0-16.07,1.72-25.79,5.4a93.94,93.94,0,0,1-22.84,5.26,127.6,127.6,0,0,1-15,1c-1.22,0-2.42,0-3.59-.07-7.55-.32-16.3-.93-24.46-4.24A31.75,31.75,0,0,1,295,28.84c-.51-.31-1-.62-1.54-.92a43.23,43.23,0,0,0-9.61-4.14,44.91,44.91,0,0,1,10.06-3.84,24.62,24.62,0,0,1,4.88-.48,35.92,35.92,0,0,1,11.73,2.23c3.44,1.18,6.86,2.72,10.16,4.22,2.42,1.1,4.92,2.23,7.43,3.22a16.44,16.44,0,0,0,6.09,1.31h.25a4.86,4.86,0,0,0,4.11-1.92,6.66,6.66,0,0,0,.77-5,19.35,19.35,0,0,0-3.46-7.79c-.14-.22-.29-.43-.44-.64A9.84,9.84,0,0,1,334,12.6,3.7,3.7,0,0,1,334.26,9a2.79,2.79,0,0,1,3-1.12,4.32,4.32,0,0,1,2.14.88,11.09,11.09,0,0,0,7.6,2.85,20.16,20.16,0,0,0,5.27-.8A21.89,21.89,0,0,0,361,6.19a9,9,0,0,0,3-4.11l.64-2L362.79.05l-.55,0c-.41,0-.82,0-1.25,0H3.21C.57,0,0,.66,0,3.72V63Z" fill="#1801ab"/><path d="M403.4,2.54l1.16,1.57c.87,1.18,1.77,2.39,2.69,3.57a21.78,21.78,0,0,1,3.81,6.7c3.16,10,9.71,16.66,20,20.39a48.17,48.17,0,0,0,16.53,2.89,59.29,59.29,0,0,0,14.75-2c19.33-5,35.59-8.92,52.15-11.88A200.71,200.71,0,0,1,539,20.59c.57,0,1.13-.05,1.67-.05a20,20,0,0,1,7.68,1.39,10.4,10.4,0,0,1,4,2.71A5,5,0,0,1,553.83,28a4.84,4.84,0,0,1-1.54,3.16c-2.3,2.34-5.21,3.13-8.24,3.8a43.54,43.54,0,0,1-7.9.76c-1.09,0-2.22.09-3.34.16a325.48,325.48,0,0,0-33.36,4.32c-7.76,1.34-15.56,2.89-23.19,4.6-.24,0-.48.13-.8.22l-.66.2-3.33,1,12.24,7.26-17.4.85-.57,2.47.81.59,1.54,1.13c1.07.78,2.17,1.58,3.28,2.37L468.46,63H713.14l.17-.06a8.19,8.19,0,0,1,2.51-.32c.46,0,.93,0,1.42,0,.73,0,1.53.06,2.25,0,10.44-.39,20.65-.95,30.83-3.43a24.42,24.42,0,0,0,5.57-2,5.69,5.69,0,0,0,3.32-4.37,6.2,6.2,0,0,0-2.34-5.21,18.63,18.63,0,0,0-4.63-3.06,60.59,60.59,0,0,0-16.1-4.49c-7.38-1.22-14.65-2.23-23.3-3.38h-.1c-5.82-.77-11.84-1.57-17.49-3.71-3.27-1.24-6.53-2.82-9.32-4.21a64.52,64.52,0,0,0-21.62-6.41c-3.31-.36-6.67-.7-9.92-1-5.07-.52-10.31-1.05-15.45-1.68-12.06-1.46-24.53-3-36.7-6A38.69,38.69,0,0,1,590,8l-.3-.21.31-.2c2.34-1.55,5-1.93,7.94-2.24A65.59,65.59,0,0,1,604.78,5a141.79,141.79,0,0,1,20.78,2,292.91,292.91,0,0,1,29.06,5.75A65.12,65.12,0,0,1,668.88,18c5.58,2.9,11.5,4,17.09,5,8.34,1.36,16.53,2,23.45,2.46,5.12.33,10.32.61,15.36.89l8.22.46c7.84.45,15,1,21.74,1.7l.94.1a228.18,228.18,0,0,0,23.2,1.58c1.41,0,2.79,0,4.12-.07A28,28,0,0,0,793.35,28a10.44,10.44,0,0,0,6-5.85l.84-2.16-2,0a82.59,82.59,0,0,1-12.84-.91l.77-.1c4-.53,8.22-1.07,12.32-1.86l1.81-.35L799.3,15c-1.52-3.16-4.19-4.11-6.54-4.94l-.13,0a35.35,35.35,0,0,0-10.75-1.8c-1.63-.07-3.32-.1-5-.1a215.6,215.6,0,0,0-28.32,2.26,34.22,34.22,0,0,1-4.59.32A21.53,21.53,0,0,1,732.3,7.58a8.51,8.51,0,0,1-4.24-6.28L727.87.09l-1.06,0-.5,0c-.38,0-.76,0-1.15,0H406c-.39,0-.77,0-1.14,0l-.51,0-2.72.09Z" fill="#ff003c"/><path d="M473.28,63l.33-.24a2.33,2.33,0,0,0,1.07-1.94,2.51,2.51,0,0,0-1.23-2L471,57l18.19-.89.43-2.59L479,47.21c6.89-1.51,13.91-2.88,20.89-4.09A315.76,315.76,0,0,1,533,38.83c1.08-.08,2.2-.12,3.27-.16a46.4,46.4,0,0,0,8.31-.81c3.26-.72,6.68-1.66,9.48-4.5A7.87,7.87,0,0,0,556.43,28a8.1,8.1,0,0,0-2.21-5.54,12.86,12.86,0,0,0-5-3.39,22.1,22.1,0,0,0-8.54-1.56c-.58,0-1.18,0-1.79.05a205.75,205.75,0,0,0-24.77,3.24c-16.62,3-32.94,6.92-52.32,11.93a57.05,57.05,0,0,1-14.18,1.9,46.08,46.08,0,0,1-15.75-2.75c-9.48-3.44-15.49-9.51-18.36-18.56a24.29,24.29,0,0,0-4.32-7.68c-.9-1.14-1.78-2.35-2.64-3.51L405.37.58,405,.06,397.4,0l-16,0h-.57c-4.13,0-8.25,0-12.38,0l-5.67,0h-.9l-.32,1a6.23,6.23,0,0,1-2.08,2.75,19.43,19.43,0,0,1-7.74,4.07,18.3,18.3,0,0,1-4.68.72,8.68,8.68,0,0,1-6-2.24,6.54,6.54,0,0,0-3.33-1.46,5.19,5.19,0,0,0-5.44,2.21,7.09,7.09,0,0,0-.65,6.62A12.45,12.45,0,0,0,333.41,17l.42.6a16.66,16.66,0,0,1,2.95,6.51,3.82,3.82,0,0,1-.25,2.56,2.68,2.68,0,0,1-2.13.81A13.9,13.9,0,0,1,329,26.29c-2.45-1-4.93-2.09-7.32-3.17-3.35-1.52-6.82-3.09-10.37-4.31a38.26,38.26,0,0,0-12.47-2.35,26.84,26.84,0,0,0-5.33.53,47.58,47.58,0,0,0-10.82,4.12l-1.51.72-.14.05a2.16,2.16,0,0,0-1.55,2.5,2.13,2.13,0,0,0,1.94,1.81l.16,0a41.81,41.81,0,0,1,10.75,4.37c.5.29,1,.6,1.5.9a35.93,35.93,0,0,0,4.87,2.61c8.52,3.45,17.49,4.08,25.23,4.4,1.2.05,2.44.08,3.69.08a128.08,128.08,0,0,0,15.24-1,96.61,96.61,0,0,0,23.39-5.38c9.45-3.59,17.38-5.26,25-5.26.88,0,1.77,0,2.65.07a27.21,27.21,0,0,1,10.31,2.35A10.58,10.58,0,0,1,410,35.08c.38,1,.05,1.19-.2,1.39a6.07,6.07,0,0,1-3.56,1.36,3.67,3.67,0,0,1-1.76-.43c-4.87-2.64-10.22-3.91-17.35-4.13a85.85,85.85,0,0,0-27.19,4l-.66.2c-11.26,3.35-22.9,6.82-34.76,7.42-2.73.14-5.46.21-8.11.21-4.05,0-8.07-.16-12-.48-4.83-.4-9.74-1-14.48-1.53l-3.28-.38c-3.95-.45-8-1-11.86-1.46l-2.85-.36L265.38,40c-3.59-.46-7.3-.94-10.95-1.38-2.45-.3-4.94-.57-7.34-.84-2.76-.3-5.61-.61-8.41-1-5.23-.65-10.86-1.29-16.59-1.54-1.92-.09-3.81-.13-5.61-.13A91,91,0,0,0,198,36.94c-11.67,2.41-20.47,6.74-27.71,13.62a35.91,35.91,0,0,0-7.91,10.17L161.27,63Z" fill="#640086"/><path d="M947.67,52.51a30.47,30.47,0,0,0-9.67,7.9L935.77,63h102.77l-.89-2.15a2.9,2.9,0,0,0-1.54-1.53l-.21-.11a145.09,145.09,0,0,0-19.53-9.75c-9.63-3.83-17.26-5.61-24.73-5.76H991c-5.34,0-10.5,1.38-15.49,2.71l-2.25.6A138.88,138.88,0,0,0,959,51.83l-1.31.5a8.84,8.84,0,0,1-3.1.74,3.73,3.73,0,0,1-1.91-.5,5,5,0,0,0-2.51-.69A5.83,5.83,0,0,0,947.67,52.51Z" fill="#fb3703"/><path d="M588.67,10.62a41.28,41.28,0,0,0,13,5.93c12.3,3.07,24.85,4.59,37,6.06,5.16.62,10.41,1.16,15.49,1.68,3.25.33,6.6.67,9.9,1A62.11,62.11,0,0,1,684.9,31.5c2.85,1.41,6.17,3,9.54,4.3,5.9,2.24,12,3.05,18,3.84h.1c8.63,1.15,15.88,2.16,23.23,3.37,5.09.85,10.49,1.95,15.48,4.3a15.85,15.85,0,0,1,4,2.64,3.29,3.29,0,0,1,1.37,2.48,3,3,0,0,1-1.81,2,21.86,21.86,0,0,1-5,1.85c-10,2.42-20.06,3-30.39,3.36a20.36,20.36,0,0,1-2.06,0c-.49,0-1,0-1.51,0a10.12,10.12,0,0,0-3.2.43L703.43,63H877.72l.37-.39a.69.69,0,0,0,.11-.13c10.06-4.51,20.46-9.14,31.87-9.38a23,23,0,0,0,8.21-1.43,7.53,7.53,0,0,0,4.91-6.45,7.18,7.18,0,0,1,2.35-4.43,17.86,17.86,0,0,1,4.65-3,81.79,81.79,0,0,1,7.9-3l2.45-.85,1.4-.48a27.43,27.43,0,0,0,7.11-3.24l.13-.09c1.3-.91,3.26-2.28,2.93-5.07s-2.71-3.53-4.12-3.9l-.24-.07a15,15,0,0,0-4-.46c-1,0-2.08.07-3.09.13l-.75.05c-9.62.61-19.49,1.25-30.18,2-2.79.19-5.62.41-8.35.63-2.45.19-5,.39-7.47.56-1.95.14-3.93.33-5.84.51-3.68.36-7.48.72-11.2.72-1.16,0-2.24,0-3.31-.1-3.05-.2-6.27-.55-9-2.4a3.18,3.18,0,0,1-1.61-2.09,3.38,3.38,0,0,1,1.24-2.39,21.65,21.65,0,0,1,5.9-3.84,2.69,2.69,0,0,0,1.8-2,2.94,2.94,0,0,0-1.33-2.49,7.22,7.22,0,0,0-1.36-.94,12.12,12.12,0,0,0-6.11-1.46,25.33,25.33,0,0,0-2.92.19,47.8,47.8,0,0,0-9.57,2.44c-.86.29-1.75.58-2.62.85a196.49,196.49,0,0,1-49.87,9.15l-.81,0-.33.85a7.64,7.64,0,0,1-4.52,4.28,26,26,0,0,1-9.52,1.87c-1.3.05-2.65.07-4,.07a227.73,227.73,0,0,1-23-1.57l-.94-.1c-6.82-.69-14-1.25-21.84-1.71l-8.23-.46c-5-.27-10.23-.56-15.33-.89-6.86-.45-15-1.08-23.24-2.44-5.4-.88-11.11-2-16.38-4.72a67.73,67.73,0,0,0-14.77-5.44A294.3,294.3,0,0,0,625.88,4a143.83,143.83,0,0,0-21.1-2,67.13,67.13,0,0,0-7.08.35c-3.15.33-6.21.78-9,2.62-1.05.69-2.07,1.48-2.07,2.81S587.86,10.08,588.67,10.62Z" fill="#fb3703"/><path d="M731.07,10.23a23.81,23.81,0,0,0,12.87,3.44,36.81,36.81,0,0,0,4.89-.34,215.47,215.47,0,0,1,28-2.24c1.67,0,3.33,0,4.93.1a33.12,33.12,0,0,1,10.07,1.67l.14,0c2.15.76,4,1.42,5,3.52l.42.9,2.19-.33c9-1.34,18.22-2.72,27.09-5.86A85.63,85.63,0,0,0,844,2.88L848.11.27l-4.7-.21L843,0c-.31,0-.63,0-1,0H728.09c-.33,0-.65,0-1,0l-.41,0-1.49.06.25,1.69A11.51,11.51,0,0,0,731.07,10.23Z" fill="#fb3703"/></g></g></svg>