<svg xmlns="http://www.w3.org/2000/svg" viewBox="0 0 100 75.49"><g id="Capa_2" data-name="Capa 2"><g id="Capa_1-2" data-name="Capa 1"><path d="M68,36.48a18.21,18.21,0,0,0,4.16-1.31C79.35,31.9,82.7,24.76,82.73,20c-.82.43-1.63.82-2.38,1.28-.21.13-.29.51-.35.78a14.6,14.6,0,0,1-3.25,6.76,17.08,17.08,0,0,0,2-6.59c-4.18,2-8.23,3.95-12.36,5.76S58,31.45,53.84,33.18c.13.12.27.22.41.33a7.08,7.08,0,0,1,2.67-.39C60.5,33.23,65.58,35.36,68,36.48Z" fill="#ffffff"/><path d="M55.63,17.12c0-5.39,5.62-3,7.67-1.85.4.23.78.46,1.15.7a13.69,13.69,0,0,0-1.27-5,63,63,0,0,0-4.55-5.8,16.8,16.8,0,0,0-7.45,4.13,4.24,4.24,0,0,1,.31-.54A17.57,17.57,0,0,1,57.63,4c-.58-.68-1.12-1.29-1.57-1.8a18.47,18.47,0,0,0-9.61,13.7C51.58,19,55.63,20.5,55.63,17.12Z" fill="#ffffff"/><path d="M83.42,4.93c-.07.11-.13.23-.2.35l3-.17-.74-.74Z" fill="#ffffff"/><path d="M18.29,70.52c3.26,1.23,6.52,2.6,7.89,2.68,2.6.14,3.91-.66,4.58-1.54A118.29,118.29,0,0,1,19,70.13c-2.18-.4-4.31-.88-6.41-1.41a8.86,8.86,0,0,0,1,.42C14.88,69.64,16.72,69.93,18.29,70.52Z" fill="#ffffff"/><path d="M37.35,30.29a1.93,1.93,0,0,1,.25-.76l.26-3.22a41.34,41.34,0,0,0-5.08,3.86A11.57,11.57,0,0,0,37.35,30.29Z" fill="#ffffff"/><path d="M91.15,7.94a3.17,3.17,0,0,1-.33.46,39.67,39.67,0,0,1-8.24,6.23,23.31,23.31,0,0,0-1.32-3.72c-.35,3.1-1.62,2.94-1.62,2.94l-.16,0c.06.17.14.33.19.51.54,1.71.5,1.73-1.25,2.56a16.62,16.62,0,0,0-1.5-3.81,12.7,12.7,0,0,1-3.31-1.86c-1.56-1.23-3-3.1-4.57-4.4A25.21,25.21,0,0,0,66.85,5.2a16.62,16.62,0,0,0-4.16-.56c1,2.24,4.74,6.89,4.76,10.7a2.52,2.52,0,0,1-.89,2.09,37.64,37.64,0,0,1,5.36,4.84s-11.66,6.29-18,5.86a16.15,16.15,0,0,1-5.7-1.45,20.22,20.22,0,0,0,1.69,2.88c-2.18.54-4.28,1.16-6.42,1.55a23.34,23.34,0,0,1-4.73.34c-.91,0-1.42-.48-1.38-1.16a11.57,11.57,0,0,1-4.57-.12l-.2.17,9.78,3.81c2.64-.72,5.23-1.59,7.81-2.51a201.2,201.2,0,0,0,38-17.86c1.82-1.12,3.56-2.36,5.28-3.64Z" fill="#ffffff"/><path d="M62.75,69.86,64.17,68l-.8-.71c-1.19.52-2.41,1-3.64,1.43-7.86,2.7-16.5,3.49-25,3.17l1.22,3.52A73.46,73.46,0,0,0,60.58,72.5c1.41-.44,2.79-.94,4.14-1.48Z" fill="#ffffff"/><path d="M94.14,46.69c.7-.88,1.4-1.77,2.06-2.65C99.85,39.19,94,39.86,94,39.86l-3.08.7A7.41,7.41,0,0,1,94.14,46.69Z" fill="#ffffff"/><path d="M62.75,69.86l2,1.16c1.23-.49,2.43-1,3.61-1.6,9-4.49,16.54-11.67,23-19.29,1-1.14,1.9-2.29,2.81-3.44a7.41,7.41,0,0,0-3.2-6.13,131.39,131.39,0,0,1-14,2.38,92.09,92.09,0,0,1-10.22.64c.16-1,.33-3.94.41-6a10.67,10.67,0,0,1-2.66.34,11.19,11.19,0,0,1-2.11-.2c0,2.21-.07,5.38-.07,5.87h-.25c-4.58,0-9.7.12-14.12-1.1.22,2.8,1.33,4.21,3.23,5.13,4.2,2,10.68,1.2,15.23.86,1.69-.14,3.39-.29,5.12-.49A104.43,104.43,0,0,0,86,45.42c1.44-.37,2-.15,2.2.28.4.81-.5,1.75-1.17,2.59C81.65,55,73.94,61.91,66.22,66c-.93.49-1.88.93-2.85,1.35l.8.71Z" fill="#ffffff"/><path d="M68,36.48c-2.44-1.12-7.52-3.25-11.1-3.36a7.08,7.08,0,0,0-2.67.39A17.76,17.76,0,0,0,68,36.48Z" fill="#ffffff"/><path d="M71.92,22.27a37.64,37.64,0,0,0-5.36-4.84,3.5,3.5,0,0,1-2,.69s0-.93-.15-2.15c-.37-.24-.75-.47-1.15-.7-2-1.18-7.67-3.54-7.67,1.85,0,3.38-4.05,1.92-9.18-1.26a18.24,18.24,0,0,0,1.74,10.82,16.15,16.15,0,0,0,5.7,1.45C60.26,28.56,71.92,22.27,71.92,22.27Z" fill="#ffffff"/><path d="M31.33,31.55a9.1,9.1,0,0,0-1.46,2c-.52,1-.2,1.82.89,2a16.17,16.17,0,0,0,4.11.11,51.26,51.26,0,0,0,7.49-1.53l-9.78-3.81C32.16,30.73,31.74,31.12,31.33,31.55Z" fill="#ffffff"/><path d="M97.26,7.29a10.61,10.61,0,0,0,2.26-2.55c.92-1.34.49-2.42-1.1-2.57a15.93,15.93,0,0,0-4.83.17c-2.71.6-5.39,1.31-8.07,2l.74.74c.8,0,1.6-.08,2.4-.1a6.38,6.38,0,0,1,2.11.37c1,.37,1.28,1.1.73,2.07a5.48,5.48,0,0,1-.35.49l2.31,2.2C94.73,9.2,96,8.24,97.26,7.29Z" fill="#ffffff"/><path d="M82.17,5.26c-.11,0-.2.11-.16.09l1.21-.07c.07-.12.13-.24.2-.35C83,5,82.59,5.16,82.17,5.26Z" fill="#ffffff"/><path d="M66.85,5.2A25.21,25.21,0,0,1,69,6.83c1.57,1.3,3,3.17,4.57,4.4a12.7,12.7,0,0,0,3.31,1.86A16.13,16.13,0,0,0,66.85,5.2Z" fill="#ffffff"/><path d="M67.25,3C73.4,4.16,77.46,8,79.48,13.83l.16,0s1.27.16,1.62-2.94A18.28,18.28,0,0,0,56.4,2l-.34.19c.45.51,1,1.12,1.57,1.8A15.38,15.38,0,0,1,67.25,3Z" fill="#ffffff"/><path d="M66.56,17.43a2.52,2.52,0,0,0,.89-2.09c0-3.81-3.73-8.46-4.76-10.7a16.05,16.05,0,0,0-4.06.49,63,63,0,0,1,4.55,5.8,13.69,13.69,0,0,1,1.27,5c.13,1.22.15,2.15.15,2.15A3.5,3.5,0,0,0,66.56,17.43Z" fill="#ffffff"/><path d="M30.76,71.66c-.67.88-2,1.68-4.58,1.54-1.37-.08-4.63-1.45-7.89-2.68-1.57-.59-3.41-.88-4.76-1.38a8.86,8.86,0,0,1-1-.42A81,81,0,0,1,0,64.5c4.6,3.68,10.62,6.39,17.45,8.17a88.26,88.26,0,0,0,18.49,2.75L34.72,71.9C33.4,71.84,32.07,71.77,30.76,71.66Z" fill="#ffffff"/></g></g></svg>