<svg xmlns="http://www.w3.org/2000/svg" viewBox="0 0 850.39 335.65"><g id="Capa_2" data-name="Capa 2"><g id="Capa_1-2" data-name="Capa 1"><path d="M675.48,165.79c9.23-2.4,18.41-5,27.72-7.06a38.9,38.9,0,0,1,11.71-.43c3.88.37,4.91,3,2.69,6.22a25.94,25.94,0,0,1-5.49,6.17c-7.22,5.41-14.37,11-22.05,15.69-29.13,17.81-60.1,31.81-92.25,43.2-12.1,4.29-24.33,8.22-37.14,9.77a37.79,37.79,0,0,1-10-.28c-2.66-.4-3.44-2.37-2.18-4.79a22,22,0,0,1,3.55-4.92,88,88,0,0,1,15.85-12.65l-.62,7.76c-1.47,2.57-.25,4.6,2.74,4.66a57.26,57.26,0,0,0,11.48-.82c5.19-.95,10.28-2.44,15.59-3.75-17.86-24.72-6.69-55.85,15.81-66.73,11.24-5.43,22.87-6.34,34.62-2.11,15.42,5.55,24.78,16.76,28.92,32.72,7.23-4.55,14.27-8.93,20-15.06a11.58,11.58,0,0,0,1.66-2.31c1.33-2.34.78-4.11-1.79-5a15,15,0,0,0-5.12-.91c-5.49.15-11,.54-16.13.82C675,166.05,675.22,165.86,675.48,165.79Zm-6.06,22c-4.76-15-14.78-24.53-30.16-27.55s-28.13,2.06-38.24,13.95a11,11,0,0,0-.75,1.33c22.5-21.35,58.7-10.64,66.1,18.47C670.63,191.92,670.73,191.88,669.42,187.74Z" fill="#fff"/><path d="M676.84,201.35c-2,1.05-4,2-5.79,3.11-.49.31-.7,1.21-.84,1.89-1.35,6.33-4.5,13-7.89,16.33a41.44,41.44,0,0,0,4.78-15.94c-10.15,4.75-20,9.55-30,13.95s-20.28,8.44-30.4,12.63c9.59,8.19,28,12.32,44.53,4.8C668.64,230.21,676.76,212.93,676.84,201.35Z" fill="#fff"/><path d="M704.23,249.46a338.46,338.46,0,0,1-41.42,7.46,228.56,228.56,0,0,1-24.8,1.53c.38-2.37.78-9.52,1-14.42a26.89,26.89,0,0,1-6.48.82,27.69,27.69,0,0,1-5.12-.49c-.1,5.33-.15,13-.17,14.19h-.58c-11.12,0-23.56.3-34.28-2.66.52,6.75,3.23,10.18,7.83,12.39,10.18,4.92,25.93,2.91,37,2.07,4.09-.31,8.22-.68,12.42-1.15a258,258,0,0,0,35.19-6.27c3.5-.91,4.83-.38,5.34.66,1,2-1.21,4.24-2.83,6.27-13.1,16.32-31.81,32.94-50.54,42.71A111.39,111.39,0,0,1,621,319.29c-31.15,10.65-67.38,9-98.89,3.38A208.94,208.94,0,0,1,476,309.06c11.16,8.9,25.78,15.45,42.36,19.76,32.5,8.46,71.47,9.88,104.68-.42a127.7,127.7,0,0,0,18.8-7.45c21.89-10.84,40.14-28.22,55.83-46.65,4.16-4.88,8.11-9.83,11.82-14.74C718.39,247.85,704.23,249.46,704.23,249.46Z" fill="#fff" fill-rule="evenodd"/><path d="M585.92,207.4l2.36-2.15c-.16.07-2.15,1.17-2.15,1.17Z" fill="#fff"/><path d="M265.35,107.61c4.33,23.38-14.82,39.52-32.44,40.2-8.37.31-17.48-1.8-25.93-1.8H178.22c-.18,34-1,67.73-2.32,101.25,9.45,0,18.91-.1,28.36.12,2.07-16.14,3.65-32.65,4.69-49.1,48.19,0,93.28-34.56,95.91-70.57C308.34,80.34,244,16.69,212.37,8a15.28,15.28,0,0,1-1.71-.43q5.11,25.52,10.18,50.9C239.38,57.58,258.77,72.36,265.35,107.61Z" fill="#fff" fill-rule="evenodd"/><path d="M163,247.26h5.18c.48-33.71.73-67.47.55-101.25h-4.82C163.83,179.85,163.4,214,163,247.26Z" fill="#fff" fill-rule="evenodd"/><path d="M175.6,105.32c-.49-34.94-1.83-69.76-4.39-104.52-1-.06-2.07-.18-3.11-.24,2.2,34.82,3.41,69.7,3.9,104.64Z" fill="#fff" fill-rule="evenodd"/><path d="M169.53,247.26h5.18Q175.84,196.7,176,146h-4.81C170.9,179.85,170.21,214,169.53,247.26Z" fill="#fff" fill-rule="evenodd"/><path d="M209.75,106.13A791.53,791.53,0,0,0,198.16,4.7V4.51A221.14,221.14,0,0,0,173.59,1c2.55,35.06,3.9,69.83,4.39,104.39Z" fill="#fff" fill-rule="evenodd"/><path d="M37.31,30l-3.66,1.86C-11.29,105.2-9.58,177.31,29,247.44H31.7C-8.12,176.07-4.76,104.33,37.31,30Z" fill="#fff" fill-rule="evenodd"/><path d="M34.81,247.44h2.37c-35.72-69.95-31.64-145,6-220.48-1,.55-2.13,1.05-3.16,1.61C-.37,105.14-2.32,178.3,34.81,247.44Z" fill="#fff" fill-rule="evenodd"/><path d="M40.36,247.44H62.55c-10.37-29.37-15.06-63.69-15.42-101.67l43,101.61c15.72-.21,31.11-.06,46.33-.06,7.75-34.26,16.47-68.46,25.43-102.11L160.35.18,154.08,0c-12.32,49.66-29.21,97.47-46.41,145.21C90.36,101.43,78.9,56.71,78.35,13A202.15,202.15,0,0,0,46.7,25.29C11.4,98.33,3.83,173.35,40.36,247.44Z" fill="#fff" fill-rule="evenodd"/><path d="M168.34,105.14C167.8,70.26,166.76,35.38,165,.37L161.7.18c1.4,34.33,2,69.52,2.19,104.83Z" fill="#fff" fill-rule="evenodd"/><path d="M476.45,252c-4.15-7.8-5.34-19-5.34-28.64,0-13.13,5-34.17,7.85-47.54,3.18-.2,6.37-.44,9.58-.7a33,33,0,0,0,3.23,1.76c4.07,1.95,21.39,8,21.39-.71a6.45,6.45,0,0,0-1.17-3.38c9.74-1.14,20.68-2.61,29.29-4.71,3.38-.83,5-2.74.3-2.83-3.76-.06-37.47.88-38.12.6-3.5-1.53-7.18-1.2-10.73-1.12-4.76.11-5.14,1.09-6.32,1.45l-5.38,0c1.1-4.92,3-13.64,3-17.72,0-8.66-18.06-16.15-18.06-4.82,0,3.34-3.57,17.18-4.89,22.42-17.36-.43-36.07-1.4-52.39-3.88-2.46-.36-3.56,1.2-.59,2.83,18.24,9.92,29.53,12.08,50.61,11.61q-2.22,10.45-4,21.3c-2.77,16.93-3.32,35.23,6,49.18,3.46,5.19,8.59,10,14.43,10C479.78,257.14,478.48,255.8,476.45,252Z" fill="#fff" fill-rule="evenodd"/><path d="M733,180.55c-9.94-4.4-14.71-1.48-18.73,9.37-2.05,5.53-2.33,10.73-.84,15.54,1.15,3.75,3.31,7.19,7.17,8.21,15.58,4.15,23.57-19.08,21.65-25.58C740.87,183.62,736.5,182.12,733,180.55Z" fill="#fff" fill-rule="evenodd"/><path d="M826,36.11a67.54,67.54,0,0,0-22.12-2.73c-14.65,1-22.72,8.8-31.22,21.3-11.75,17.28-35.37,69.16-38.61,87.58-1.07,6.06-3,17.7-.16,23a12.28,12.28,0,0,0,11,6.37c5.42-.35,13.57-9.51,17-13.75,11.4-14.31,22.66-28.44,35-42.66,13.33-15.38,34.53-35.11,47-49C860,48.33,843.29,40.9,826,36.11Z" fill="#fff" fill-rule="evenodd"/><path d="M315.55,180.49c-1.18,0-2.46.69-3.84,2.06-7.94,7.86-16.74,28.79-19.25,39.73-1.89-21,2.52-23.17,2.52-31,0-6.83-7.51-9-14.51-9-5,0-6.31,15.92-6.59,19.83-3.94,55,23.91,49.59,23.91,45.89,0-1.36-3.57-8.66-3.85-12.79a31.12,31.12,0,0,1,1.11-6.69c3.48-12.73,10.32-25.93,17.25-37.09-.89,3.53-2.52,9.3-2.52,12.68,0,3.93,9.34,4.93,13,4.93,6.29,0,9-6.61,9.93-12C335.39,181.43,329.3,180.49,315.55,180.49Z" fill="#fff" fill-rule="evenodd"/><path d="M361.3,176.15c0-5.38-9.17-11.5-15.1-11.5-4.71,0-13.77-.94-13.77,5.75C332.43,176.41,361.3,186.66,361.3,176.15Z" fill="#fff" fill-rule="evenodd"/><path d="M418.27,192.11a237.33,237.33,0,0,0-4.66,27.53c-.71,7.25-1.43,16.37,3,22,7.46,9.44,18.87,9.53,18.87,7.1s-2.81-4.09-2.81-20.07c0-9,7.55-33.42,7.55-39.32,0-4.11-8.13-5.53-9.33-6.11s-5-.7-7-.7c-12,0-28.24,41.13-31.8,51.18-1.45-8.58-.15-18.37-.15-27.12,0-7.52-21.76-6.53-21.76-4.34,0,1.75,1.62,1.66,1.62,3.41,0,2.82-.08,7.64.23,11.55.15,1.88.37,3.82.69,5.85-.18,1-8.43,13.86-12.46,15.45-3.95-7-5.63-15.2-5.63-24.88,0-5.28.89-11.07.89-16.31,0-5.95-18.65-10.51-18.65-5.28,0,2.52-1.15,8.58-1.4,12.79-.55,9-.52,20.17,3.33,29.11,3.28,7.64,9.08,12.32,18.06,12.32,7.19,0,13.77-11.36,17-17.19,2.15,8.75,7.35,18.25,17.49,18.25a6.87,6.87,0,0,0,1.78-.24,1.75,1.75,0,0,0,1.62-1.17,24.41,24.41,0,0,0,3.33-5.39C405.54,225.34,410.81,207.2,418.27,192.11Z" fill="#fff" fill-rule="evenodd"/><path d="M570.78,242.19c6.66,8.82,14.13,8.87,14.13,6.5,0-1.71-1.13-3-1.88-8.31A91.74,91.74,0,0,1,570.78,242.19Z" fill="#fff" fill-rule="evenodd"/><path d="M548.1,235.34h0a6,6,0,0,1,.42-1.06,22,22,0,0,1,3.55-4.92c1.16-1.19,2.7-2.56,4.36-3.94,2.94-7.53,5.72-15.27,8.91-22.61a57.47,57.47,0,0,1,6.51-10.7,262,262,0,0,0-4.1,26.34c-.14,1.79-.35,4.48-.47,5.62-.08,1.31-.11,2.65-.12,4a3.83,3.83,0,0,0,2.88,1.09,57.26,57.26,0,0,0,11.48-.82l.87-.19c.41-9.66,6.8-33.11,6.8-38.82,0-4.11-7.37-5.53-8.45-6.11s-4.52-.7-6.31-.7c-4.06,0-8.3,5.83-13,13.38-8.06,12.94-15.29,31.5-17.52,37.8-1.45-8.58-.15-18.37-.15-27.12C543.8,199,522,200,522,202.21c0,1.75,1.63,1.66,1.63,3.41,0,2.82-.09,7.64.22,11.55.15,1.88.38,3.82.69,5.85-.18,1-8.44,13.86-12.46,15.45-3.94-7-5.62-15.2-5.62-24.88,0-5.28.89-11.07.89-16.31,0-5.95-18.65-10.51-18.65-5.28,0,2.52-1.15,8.58-1.42,12.79-.55,9-.51,20.17,3.34,29.11,3.28,7.64,9.08,12.32,18.06,12.32,7.19,0,13.77-11.36,17-17.19,2.15,8.75,7.35,18.25,17.49,18.25A6.87,6.87,0,0,0,545,247a1.76,1.76,0,0,0,1.62-1.17,24.41,24.41,0,0,0,3.33-5.39c0-.08.07-.16.11-.23C546.92,238.19,548.1,235.34,548.1,235.34Z" fill="#fff" fill-rule="evenodd"/><path d="M37,266.9h7.23v23.36H37Z" fill="#fff"/><path d="M84.26,266.9H91l8.79,12.93V266.9h6.81v23.36H99.79L91,277.44v12.82H84.26Z" fill="#fff"/><path d="M139.05,266.9h6.74l8.8,12.93V266.9h6.8v23.36h-6.8l-8.75-12.82v12.82h-6.79Z" fill="#fff"/><path d="M192.91,278.6q0-5.72,3.19-8.91t8.88-3.18q5.82,0,9,3.13c2.09,2.09,3.15,5,3.15,8.77a14.42,14.42,0,0,1-1.38,6.72,9.88,9.88,0,0,1-4,4.07,13.19,13.19,0,0,1-6.5,1.46,15,15,0,0,1-6.54-1.26,9.85,9.85,0,0,1-4.2-4A13.27,13.27,0,0,1,192.91,278.6Zm7.22,0q0,3.54,1.32,5.08a5,5,0,0,0,7.17,0c.85-1,1.28-2.82,1.28-5.43,0-2.2-.44-3.8-1.33-4.82A4.57,4.57,0,0,0,205,272a4.42,4.42,0,0,0-3.51,1.55C200.57,274.54,200.13,276.25,200.13,278.63Z" fill="#fff"/><path d="M247.15,266.9h7.54L260,283.71l5.19-16.81h7.33l-8.68,23.36H256Z" fill="#fff"/><path d="M318.59,286.41h-8.2l-1.14,3.85h-7.36l8.78-23.36h7.87l8.78,23.36h-7.56Zm-1.5-5.06L314.51,273,312,281.35Z" fill="#fff"/><path d="M358.42,266.9h21.94v5.77H373v17.59h-7.23V272.67h-7.36Z" fill="#fff"/><path d="M420.55,266.9h7.23v23.36h-7.23Z" fill="#fff"/><path d="M466.86,278.6q0-5.72,3.18-8.91t8.88-3.18q5.83,0,9,3.13t3.15,8.77a14.42,14.42,0,0,1-1.37,6.72,9.88,9.88,0,0,1-4,4.07,13.23,13.23,0,0,1-6.51,1.46,14.9,14.9,0,0,1-6.53-1.26,9.85,9.85,0,0,1-4.2-4A13.17,13.17,0,0,1,466.86,278.6Zm7.21,0c0,2.36.45,4.05,1.32,5.08a5,5,0,0,0,7.18,0c.85-1,1.27-2.82,1.27-5.43a7.27,7.27,0,0,0-1.32-4.82,4.58,4.58,0,0,0-3.61-1.52,4.39,4.39,0,0,0-3.51,1.55C474.52,274.54,474.07,276.25,474.07,278.63Z" fill="#fff"/><path d="M522.58,266.9h6.73l8.8,12.93V266.9h6.8v23.36h-6.8l-8.75-12.82v12.82h-6.78Z" fill="#fff"/></g></g></svg>