<svg xmlns="http://www.w3.org/2000/svg" viewBox="0 0 855.95 337.84"><g id="Capa_2" data-name="Capa 2"><g id="Capa_1-2" data-name="Capa 1"><path d="M679.9,166.87c9.29-2.42,18.53-5.06,27.9-7.11a39.11,39.11,0,0,1,11.79-.42c3.9.36,4.94,3,2.71,6.25a26.13,26.13,0,0,1-5.53,6.21c-7.27,5.45-14.46,11.07-22.19,15.79-29.32,17.94-60.5,32-92.86,43.49-12.17,4.32-24.48,8.27-37.38,9.83a38.24,38.24,0,0,1-10-.28c-2.67-.41-3.46-2.39-2.2-4.82a21.55,21.55,0,0,1,3.58-4.95,88.7,88.7,0,0,1,15.95-12.74l-.63,7.82c-1.47,2.58-.24,4.62,2.76,4.68a56.66,56.66,0,0,0,11.56-.83c5.22-.95,10.34-2.45,15.69-3.77-18-24.87-6.74-56.21,15.91-67.16,11.32-5.47,23-6.39,34.85-2.12,15.52,5.59,25,16.87,29.11,32.93,7.27-4.58,14.36-9,20.13-15.16a12,12,0,0,0,1.67-2.32c1.34-2.36.78-4.14-1.8-5a15,15,0,0,0-5.16-.91c-5.52.15-11,.54-16.24.83C679.4,167.13,679.63,166.94,679.9,166.87ZM673.8,189c-4.79-15.05-14.88-24.69-30.35-27.72s-28.32,2.06-38.49,14a11.89,11.89,0,0,0-.76,1.34c22.65-21.49,59.09-10.7,66.54,18.6C675,193.17,675.12,193.14,673.8,189Z" fill="#2d4a9a"/><path d="M681.26,202.67c-2,1.05-4,2-5.82,3.13-.49.3-.71,1.22-.85,1.89-1.36,6.38-4.52,13.13-7.94,16.44a41.39,41.39,0,0,0,4.81-16c-10.21,4.78-20.1,9.61-30.17,14s-20.42,8.5-30.61,12.71c9.65,8.24,28.17,12.4,44.82,4.83C673,231.71,681.19,214.31,681.26,202.67Z" fill="#2d4a9a"/><path d="M708.84,251.09a340.15,340.15,0,0,1-41.69,7.5,226,226,0,0,1-25,1.55c.39-2.39.8-9.58,1-14.52a26.35,26.35,0,0,1-11.67.33c-.1,5.37-.16,13.09-.17,14.28h-.59c-11.19,0-23.71.29-34.5-2.68.52,6.8,3.25,10.24,7.88,12.47,10.25,5,26.1,2.93,37.22,2.09,4.11-.32,8.27-.69,12.5-1.17a258.59,258.59,0,0,0,35.42-6.31c3.52-.91,4.87-.38,5.38.67,1,2-1.22,4.27-2.86,6.31-13.18,16.43-32,33.16-50.86,43a113.3,113.3,0,0,1-15.87,6.77c-31.36,10.72-67.83,9.12-99.54,3.4a210.25,210.25,0,0,1-46.37-13.69C490.4,320,505.11,326.62,521.8,331c32.71,8.51,71.93,9.94,105.36-.43a129.34,129.34,0,0,0,18.92-7.5c22-10.91,40.4-28.4,56.2-47,4.18-4.91,8.15-9.9,11.89-14.83C723.09,249.46,708.84,251.09,708.84,251.09Z" fill="#2d4a9a" fill-rule="evenodd"/><path d="M589.75,208.75l2.38-2.16c-.16.07-2.16,1.18-2.16,1.18Z" fill="#2d4a9a"/><path d="M267.08,108.31c4.36,23.53-14.92,39.78-32.65,40.46-8.43.32-17.6-1.8-26.11-1.8H179.38c-.18,34.18-1,68.16-2.33,101.9,9.5,0,19-.1,28.54.12,2.08-16.24,3.68-32.86,4.72-49.42,48.5,0,93.89-34.78,96.53-71C310.34,80.86,245.6,16.81,213.75,8A15.5,15.5,0,0,1,212,7.59c3.44,17.12,6.81,34.18,10.25,51.24C240.93,58,260.45,72.83,267.08,108.31Z" fill="#fff" fill-rule="evenodd"/><path d="M164,248.87h5.22c.48-33.93.73-67.91.55-101.9H165C164.9,181,164.47,215.38,164,248.87Z" fill="#fff" fill-rule="evenodd"/><path d="M176.74,106c-.49-35.17-1.84-70.22-4.42-105.2-1-.06-2.08-.19-3.13-.25,2.21,35.05,3.44,70.15,3.93,105.32Z" fill="#fff" fill-rule="evenodd"/><path d="M170.63,248.87h5.22c.75-33.93,1.26-67.91,1.34-101.9h-4.85C172,181,171.32,215.38,170.63,248.87Z" fill="#fff" fill-rule="evenodd"/><path d="M211.11,106.82A794.67,794.67,0,0,0,199.45,4.73V4.54A221.67,221.67,0,0,0,174.72,1c2.57,35.29,3.92,70.28,4.41,105.07Z" fill="#fff" fill-rule="evenodd"/><path d="M37.55,30.19l-3.68,1.87c-45.23,73.82-43.51,146.41-4.66,217h2.7C-8.17,177.22-4.79,105,37.55,30.19Z" fill="#fff" fill-rule="evenodd"/><path d="M35,249.06h2.39c-36-70.41-31.85-145.91,6.08-221.92-1,.56-2.15,1.06-3.19,1.62C-.38,105.82-2.34,179.46,35,249.06Z" fill="#fff" fill-rule="evenodd"/><path d="M40.62,249.06H63C52.53,219.49,47.8,184.94,47.43,146.72L90.7,249c15.83-.2,31.32-.06,46.64-.06,7.79-34.48,16.57-68.9,25.59-102.77L161.4.19,155.08,0c-12.4,50-29.4,98.11-46.71,146.16C91,102.09,79.41,57.08,78.86,13.07A202.84,202.84,0,0,0,47,25.46C11.47,99,3.86,174.48,40.62,249.06Z" fill="#fff" fill-rule="evenodd"/><path d="M169.44,105.82c-.55-35.11-1.6-70.21-3.38-105.45L162.75.19c1.41,34.55,2,70,2.21,105.51Z" fill="#fff" fill-rule="evenodd"/><path d="M479.57,253.62c-4.17-7.85-5.37-19.09-5.37-28.83,0-13.21,5-34.39,7.9-47.84q4.8-.31,9.64-.7A34.7,34.7,0,0,0,495,178c4.1,2,21.53,8,21.53-.71a6.5,6.5,0,0,0-1.18-3.41c9.81-1.14,20.82-2.62,29.49-4.74,3.4-.83,5-2.75.3-2.84-3.78-.06-37.71.88-38.37.59-3.52-1.53-7.23-1.2-10.8-1.12-4.79.12-5.17,1.1-6.36,1.46l-5.41,0c1.1-4.95,3-13.72,3-17.84,0-8.72-18.18-16.25-18.18-4.84,0,3.36-3.59,17.29-4.92,22.56-17.47-.43-36.3-1.41-52.74-3.9-2.48-.37-3.59,1.21-.6,2.84,18.38,10,29.74,12.17,51,11.69q-2.24,10.51-4,21.45c-2.79,17-3.35,35.45,6,49.49,3.48,5.22,8.65,10.1,14.53,10.1C482.92,258.81,481.62,257.47,479.57,253.62Z" fill="#fff" fill-rule="evenodd"/><path d="M737.75,181.72c-10-4.42-14.8-1.48-18.85,9.44-2.06,5.56-2.35,10.8-.84,15.64,1.16,3.77,3.33,7.24,7.22,8.27,15.68,4.17,23.72-19.22,21.78-25.75C745.72,184.82,741.32,183.3,737.75,181.72Z" fill="#fff" fill-rule="evenodd"/><path d="M831.4,36.35a67.65,67.65,0,0,0-22.26-2.75c-14.75,1-22.87,8.85-31.43,21.44-11.83,17.38-35.6,69.61-38.86,88.15-1.08,6.09-3,17.81-.17,23.1a12.35,12.35,0,0,0,11.12,6.41c5.46-.35,13.66-9.58,17.06-13.85,11.47-14.4,22.8-28.61,35.2-42.92,13.41-15.49,34.75-35.34,47.33-49.29C865.59,48.65,848.8,41.17,831.4,36.35Z" fill="#fff" fill-rule="evenodd"/><path d="M317.61,181.67c-1.2,0-2.49.69-3.88,2.07-8,7.91-16.84,29-19.37,40-1.9-21.18,2.54-23.32,2.54-31.19,0-6.88-7.56-9.09-14.61-9.09-5.05,0-6.34,16-6.63,20-4,55.31,24.07,49.91,24.07,46.19,0-1.37-3.59-8.72-3.87-12.87A30.34,30.34,0,0,1,297,230c3.5-12.82,10.38-26.1,17.36-37.33-.9,3.55-2.54,9.36-2.54,12.76,0,4,9.41,5,13.12,5,6.32,0,9-6.65,10-12.11C337.57,182.61,331.44,181.67,317.61,181.67Z" fill="#fff" fill-rule="evenodd"/><path d="M363.65,177.3c0-5.42-9.23-11.58-15.2-11.58-4.74,0-13.86-.94-13.86,5.79C334.59,177.56,363.65,187.88,363.65,177.3Z" fill="#fff" fill-rule="evenodd"/><path d="M421,193.37a236,236,0,0,0-4.69,27.7c-.72,7.3-1.45,16.48,3,22.09,7.51,9.51,19,9.59,19,7.15s-2.83-4.12-2.83-20.2c0-9.06,7.6-33.64,7.6-39.58,0-4.13-8.17-5.56-9.38-6.14s-5-.71-7-.71c-12.09,0-28.45,41.4-32,51.51-1.46-8.64-.15-18.49-.15-27.29,0-7.57-21.9-6.57-21.9-4.37,0,1.76,1.64,1.67,1.64,3.43,0,2.84-.1,7.69.22,11.63q.23,2.82.7,5.88c-.19,1-8.49,14-12.55,15.56-4-7-5.65-15.31-5.65-25,0-5.32.89-11.15.89-16.42,0-6-18.78-10.58-18.78-5.32,0,2.54-1.15,8.63-1.41,12.88-.55,9.05-.52,20.3,3.35,29.3,3.3,7.68,9.14,12.4,18.18,12.4,7.24,0,13.86-11.44,17.11-17.31,2.16,8.81,7.41,18.37,17.6,18.37a6.55,6.55,0,0,0,1.8-.24,1.77,1.77,0,0,0,1.63-1.18,24.94,24.94,0,0,0,3.35-5.43C408.18,226.81,413.49,208.55,421,193.37Z" fill="#fff" fill-rule="evenodd"/><path d="M574.52,243.77c6.7,8.88,14.22,8.92,14.22,6.54,0-1.72-1.14-3-1.9-8.36A92.55,92.55,0,0,1,574.52,243.77Z" fill="#fff" fill-rule="evenodd"/><path d="M551.69,236.87h0a6.29,6.29,0,0,1,.42-1.06,21.55,21.55,0,0,1,3.58-4.95,57.66,57.66,0,0,1,4.39-4c3-7.58,5.75-15.37,9-22.76a57.54,57.54,0,0,1,6.54-10.76,264.78,264.78,0,0,0-4.12,26.5c-.14,1.8-.35,4.51-.47,5.67-.08,1.31-.12,2.65-.12,4a3.84,3.84,0,0,0,2.89,1.09,56.66,56.66,0,0,0,11.56-.83c.29,0,.58-.13.87-.18.42-9.72,6.85-33.33,6.85-39.08,0-4.13-7.41-5.56-8.51-6.14s-4.54-.71-6.35-.71c-4.08,0-8.35,5.86-13.05,13.47-8.11,13-15.39,31.7-17.64,38-1.45-8.64-.15-18.49-.15-27.29,0-7.57-21.9-6.57-21.9-4.37,0,1.76,1.64,1.67,1.64,3.43,0,2.84-.09,7.69.23,11.63q.21,2.82.69,5.88c-.19,1-8.49,14-12.54,15.56-4-7-5.66-15.31-5.66-25,0-5.32.89-11.15.89-16.42,0-6-18.77-10.58-18.77-5.32,0,2.54-1.16,8.63-1.42,12.88-.55,9.05-.52,20.3,3.35,29.3,3.31,7.68,9.15,12.4,18.18,12.4,7.24,0,13.86-11.44,17.12-17.31,2.16,8.81,7.39,18.37,17.6,18.37a6.53,6.53,0,0,0,1.79-.24,1.76,1.76,0,0,0,1.63-1.18,24.9,24.9,0,0,0,3.36-5.43l.11-.23C550.5,239.74,551.69,236.87,551.69,236.87Z" fill="#fff" fill-rule="evenodd"/><path d="M37.26,268.64h7.28v23.52H37.26Z" fill="#fff"/><path d="M84.8,268.64h6.79l8.85,13v-13h6.85v23.52h-6.85l-8.81-12.91v12.91H84.8Z" fill="#fff"/><path d="M140,268.64h6.79l8.85,13v-13h6.85v23.52h-6.85l-8.8-12.91v12.91H140Z" fill="#fff"/><path d="M194.17,280.42q0-5.76,3.2-9t8.94-3.21c3.91,0,6.93,1.06,9.05,3.15s3.17,5.05,3.17,8.83a14.58,14.58,0,0,1-1.38,6.77,9.92,9.92,0,0,1-4,4.1,13.17,13.17,0,0,1-6.53,1.47,15,15,0,0,1-6.59-1.27,9.85,9.85,0,0,1-4.22-4A13.29,13.29,0,0,1,194.17,280.42Zm7.26,0c0,2.37.45,4.08,1.33,5.12a5,5,0,0,0,7.22,0c.86-1,1.28-2.83,1.28-5.46,0-2.22-.44-3.83-1.33-4.85a4.6,4.6,0,0,0-3.64-1.53,4.44,4.44,0,0,0-3.53,1.55C201.88,276.34,201.43,278.06,201.43,280.45Z" fill="#fff"/><path d="M248.76,268.64h7.59l5.29,16.93,5.22-16.93h7.38l-8.73,23.52h-7.88Z" fill="#fff"/><path d="M320.66,288.28h-8.25l-1.14,3.88h-7.42l8.84-23.52h7.92l8.84,23.52h-7.61Zm-1.5-5.09-2.6-8.45L314,283.19Z" fill="#fff"/><path d="M360.76,268.64h22.08v5.81h-7.41v17.71h-7.27V274.45h-7.4Z" fill="#fff"/><path d="M423.31,268.64h7.28v23.52h-7.28Z" fill="#fff"/><path d="M469.92,280.42q0-5.76,3.21-9t8.93-3.21c3.91,0,6.93,1.06,9.05,3.15s3.17,5.05,3.17,8.83A14.58,14.58,0,0,1,492.9,287a10,10,0,0,1-4,4.1,13.24,13.24,0,0,1-6.54,1.47,15,15,0,0,1-6.58-1.27,9.87,9.87,0,0,1-4.23-4A13.29,13.29,0,0,1,469.92,280.42Zm7.26,0c0,2.37.45,4.08,1.33,5.12a5,5,0,0,0,7.22,0q1.29-1.51,1.29-5.46c0-2.22-.45-3.83-1.34-4.85a4.58,4.58,0,0,0-3.63-1.53,4.45,4.45,0,0,0-3.54,1.55C477.63,276.34,477.18,278.06,477.18,280.45Z" fill="#fff"/><path d="M526,268.64h6.78l8.86,13v-13h6.84v23.52h-6.84l-8.81-12.91v12.91H526Z" fill="#fff"/><path d="M645.42,242.82a44,44,0,0,0,10.13-3.18c17.46-8,25.6-25.36,25.67-37-2,1.05-4,2-5.8,3.13-.49.3-.7,1.22-.84,1.89-1.35,6.38-4.51,13.12-7.92,16.44a41.67,41.67,0,0,0,4.8-16c-10.18,4.77-20,9.61-30.08,14s-20.34,8.5-30.49,12.71c.32.27.67.53,1,.79a17.5,17.5,0,0,1,6.5-.94C627.12,234.91,639.48,240.09,645.42,242.82Z" fill="#fa3c0a"/><path d="M615.26,195.7c0-13.14,13.68-7.37,18.67-4.51,1,.55,1.89,1.12,2.8,1.7-.42-4-1.29-9.34-3.1-12.26-2-3.23-6.68-9-11.07-14.13a40.58,40.58,0,0,0-18.13,10.07,11.89,11.89,0,0,1,.76-1.34,42.7,42.7,0,0,1,14.93-11.58c-1.42-1.65-2.71-3.12-3.81-4.37-12.47,6.41-21.3,19.07-23.4,33.34C605.38,200.37,615.26,203.91,615.26,195.7Z" fill="#fa3c0a"/><path d="M682.89,166q-.23.42-.48.84c2.44-.14,4.9-.27,7.42-.39l-1.8-1.81Z" fill="#fa3c0a"/><path d="M524.35,325.68c7.95,3,15.88,6.34,19.22,6.53,6.33.34,9.51-1.61,11.14-3.74A286.21,286.21,0,0,1,526,324.73c-5.31-1-10.49-2.14-15.59-3.43a18.88,18.88,0,0,0,2.32,1C516.05,323.54,520.54,324.24,524.35,325.68Z" fill="#6a0a8a"/><path d="M570.76,227.76a4.36,4.36,0,0,1,.61-1.86l.62-7.82a100.67,100.67,0,0,0-12.37,9.38C563,228.52,566.75,228.16,570.76,227.76Z" fill="#2710af"/><path d="M701.72,173.35a10.26,10.26,0,0,1-.8,1.12c-5.75,6.17-12.81,10.58-20.06,15.16a57,57,0,0,0-3.2-9c-.85,7.53-4,7.16-4,7.16l-.39-.07c.15.42.34.81.47,1.24,1.32,4.18,1.21,4.21-3,6.24a40.26,40.26,0,0,0-3.66-9.27,31.22,31.22,0,0,1-8.05-4.53c-3.8-3-7.29-7.54-11.12-10.72a63.7,63.7,0,0,0-5.33-4,40.13,40.13,0,0,0-10.13-1.35c2.51,5.44,11.54,16.76,11.59,26a6.16,6.16,0,0,1-2.16,5.09,90.73,90.73,0,0,1,13,11.8S626.53,223.55,611,222.5A39.4,39.4,0,0,1,597.14,219a46.73,46.73,0,0,0,4.13,7c-5.33,1.32-10.43,2.83-15.63,3.78a56.93,56.93,0,0,1-11.52.82c-2.22,0-3.46-1.18-3.36-2.82-4,.4-7.79.76-11.14-.3l-.47.42L583,237.16c6.41-1.75,12.73-3.88,19-6.12,32.24-11.47,63.31-25.55,92.52-43.49,4.43-2.71,8.67-5.74,12.86-8.84Z" fill="#fa3c0a"/><path d="M632.58,324.08l3.47-4.51-1.95-1.71c-2.91,1.26-5.86,2.44-8.88,3.47-19.12,6.57-40.16,8.5-60.86,7.71l3,8.58c20.37.84,41.11-1.24,60-7.11,3.43-1.07,6.78-2.28,10.07-3.6Z" fill="#6a0a8a"/><path d="M709,267.68c1.71-2.15,3.4-4.31,5-6.46,8.89-11.79-5.32-10.17-5.32-10.17-2.58.62-5.05,1.18-7.48,1.71A18,18,0,0,1,709,267.68Z" fill="#fa3c0a"/><path d="M632.58,324.08l4.8,2.83c3-1.2,5.92-2.49,8.78-3.91,22-10.91,40.27-28.4,56-46.95,2.36-2.77,4.63-5.57,6.84-8.37a18,18,0,0,0-7.78-14.92,322.12,322.12,0,0,1-34.06,5.79,224.57,224.57,0,0,1-24.88,1.55c.38-2.39.79-9.58,1-14.52a26.17,26.17,0,0,1-11.63.33c-.09,5.37-.15,13.1-.17,14.29h-.59c-11.15,0-23.62.29-34.37-2.68.52,6.8,3.24,10.24,7.85,12.48,10.22,4.95,26,2.92,37.09,2.08,4.1-.32,8.24-.69,12.46-1.17a256.65,256.65,0,0,0,35.29-6.31c3.51-.91,4.85-.38,5.36.68,1,2-1.21,4.26-2.84,6.3-13.14,16.43-31.9,33.16-50.69,43-2.27,1.18-4.59,2.26-6.94,3.29l1.95,1.71Z" fill="#ff003c"/><path d="M645.42,242.82c-5.94-2.73-18.3-7.91-27-8.17a17.5,17.5,0,0,0-6.5.94C619.71,241.7,632.46,245.24,645.42,242.82Z" fill="#ff003c"/><path d="M654.91,208.24a90.73,90.73,0,0,0-13-11.8,8.33,8.33,0,0,1-4.77,1.68s-.06-2.26-.37-5.23c-.91-.58-1.84-1.15-2.8-1.7-5-2.86-18.67-8.63-18.67,4.51,0,8.21-9.88,4.67-22.35-3.08A44.61,44.61,0,0,0,597.14,219,39.4,39.4,0,0,0,611,222.5C626.53,223.55,654.91,208.24,654.91,208.24Z" fill="#ff003c"/><path d="M556.1,230.82a21.57,21.57,0,0,0-3.57,5c-1.25,2.42-.47,4.4,2.19,4.82a38,38,0,0,0,10,.27A126.38,126.38,0,0,0,583,237.16l-23.81-9.28C558.12,228.82,557.11,229.77,556.1,230.82Z" fill="#ff003c"/><path d="M716.6,171.76a26,26,0,0,0,5.51-6.2c2.23-3.28,1.19-5.89-2.7-6.26a38.85,38.85,0,0,0-11.75.42c-6.59,1.45-13.11,3.19-19.63,4.94l1.8,1.81c1.94-.1,3.87-.21,5.82-.26a14.9,14.9,0,0,1,5.14.92c2.57.88,3.13,2.66,1.79,5a12.51,12.51,0,0,1-.86,1.2l5.63,5.36C710.45,176.42,713.52,174.08,716.6,171.76Z" fill="#ffc000"/><path d="M679.87,166.83c-.27.07-.5.26-.4.2l2.94-.17q.26-.42.48-.84Z" fill="#ffc000"/><path d="M642.57,166.67a63.7,63.7,0,0,1,5.33,4c3.83,3.18,7.32,7.71,11.12,10.72a31.22,31.22,0,0,0,8.05,4.53A39.25,39.25,0,0,0,642.57,166.67Z" fill="#ffc000"/><path d="M643.54,161.2c15,3,24.85,12.17,29.77,26.48l.39.07s3.11.37,4-7.16a43.19,43.19,0,0,0-25.81-23.89c-11.78-4.27-23.44-3.35-34.72,2.12-.28.14-.54.31-.82.46,1.1,1.25,2.39,2.72,3.81,4.37A37.58,37.58,0,0,1,643.54,161.2Z" fill="#ffc000"/><path d="M641.87,196.44a6.16,6.16,0,0,0,2.16-5.09c0-9.27-9.08-20.59-11.59-26a39.56,39.56,0,0,0-9.88,1.18c4.39,5.16,9.07,10.9,11.07,14.13,1.81,2.92,2.68,8.24,3.1,12.26.31,3,.37,5.23.37,5.23A8.33,8.33,0,0,0,641.87,196.44Z" fill="#ffc000"/><path d="M554.71,328.47c-1.63,2.13-4.81,4.08-11.14,3.74-3.34-.19-11.27-3.54-19.22-6.53-3.81-1.44-8.3-2.14-11.59-3.35a18.88,18.88,0,0,1-2.32-1A197,197,0,0,1,479.83,311c11.19,8.95,25.86,15.54,42.49,19.89a215,215,0,0,0,45,6.69l-3-8.58Q559.52,328.85,554.71,328.47Z" fill="#1801ab"/></g></g></svg>