<svg xmlns="http://www.w3.org/2000/svg" viewBox="0 0 174.74 68.97"><g id="Capa_2" data-name="Capa 2"><g id="Capa_1-2" data-name="Capa 1"><path d="M138.8,34.07c1.9-.5,3.78-1,5.69-1.45a8.1,8.1,0,0,1,2.41-.09c.8.07,1,.61.55,1.28a5,5,0,0,1-1.13,1.26c-1.48,1.12-2.95,2.26-4.52,3.23a100.42,100.42,0,0,1-19,8.87,35.47,35.47,0,0,1-7.63,2,8.27,8.27,0,0,1-2,0c-.55-.09-.71-.49-.45-1a4.81,4.81,0,0,1,.73-1,18.07,18.07,0,0,1,3.26-2.6l-.13,1.6c-.3.52,0,.94.57.95a11.57,11.57,0,0,0,2.35-.17c1.07-.19,2.12-.5,3.21-.77A9.21,9.21,0,0,1,126,32.43a8.86,8.86,0,0,1,7.11-.43A9.09,9.09,0,0,1,139,38.72a19.67,19.67,0,0,0,4.11-3.09,2.32,2.32,0,0,0,.34-.48c.28-.48.16-.84-.36-1a3,3,0,0,0-1.06-.19c-1.13,0-2.25.11-3.31.17C138.7,34.12,138.74,34.08,138.8,34.07Zm-1.25,4.51a8.08,8.08,0,0,0-14.05-2.8,2.86,2.86,0,0,0-.16.28,8.16,8.16,0,0,1,13.59,3.79C137.8,39.44,137.82,39.43,137.55,38.58Z" fill="#fff"/><path d="M139.08,41.37c-.41.22-.82.41-1.19.64a.61.61,0,0,0-.17.39,7.25,7.25,0,0,1-1.63,3.36,8.47,8.47,0,0,0,1-3.28c-2.09,1-4.11,2-6.16,2.87s-4.17,1.73-6.25,2.59a9,9,0,0,0,14.41-6.57Z" fill="#fff"/><path d="M144.71,51.26a68.33,68.33,0,0,1-8.51,1.53,48.58,48.58,0,0,1-5.1.32c.08-.49.16-2,.2-3a5.51,5.51,0,0,1-1.33.17,5.19,5.19,0,0,1-1.05-.1c0,1.1,0,2.67,0,2.92h-.12a27.69,27.69,0,0,1-7.05-.55,2.74,2.74,0,0,0,1.61,2.55c2.09,1,5.33.59,7.6.42q1.26-.09,2.55-.24A51.91,51.91,0,0,0,140.71,54c.72-.18,1-.07,1.1.14.2.41-.25.87-.58,1.29a35.14,35.14,0,0,1-10.39,8.78,23.19,23.19,0,0,1-3.24,1.38c-6.4,2.19-13.84,1.86-20.32.69a43.27,43.27,0,0,1-9.46-2.79,23.61,23.61,0,0,0,8.7,4.06c6.68,1.73,14.69,2,21.51-.09A26.5,26.5,0,0,0,131.89,66c4.5-2.23,8.25-5.8,11.48-9.59.85-1,1.66-2,2.43-3C147.62,50.93,144.71,51.26,144.71,51.26Z" fill="#fff" fill-rule="evenodd"/><path d="M120.4,42.62l.48-.45-.44.25Z" fill="#fff"/><path d="M54.52,22.11a7,7,0,0,1-6.66,8.26c-1.72.07-3.59-.37-5.33-.37H36.62q-.06,10.47-.48,20.81c2,0,3.89,0,5.83,0,.43-3.31.75-6.71,1-10.09,9.9,0,19.16-7.1,19.7-14.5.72-9.73-12.5-22.81-19-24.6a3.58,3.58,0,0,1-.35-.09Q44.34,6.79,45.38,12C49.19,11.83,53.17,14.87,54.52,22.11Z" fill="#fff" fill-rule="evenodd"/><path d="M33.49,50.81h1.06q.15-10.39.12-20.81h-1C33.66,37,33.58,44,33.49,50.81Z" fill="#fff" fill-rule="evenodd"/><path d="M36.08,21.64c-.1-7.18-.37-14.33-.9-21.48l-.64,0c.45,7.16.7,14.33.8,21.51Z" fill="#fff" fill-rule="evenodd"/><path d="M34.83,50.81H35.9c.15-6.93.26-13.87.27-20.81h-1C35.12,37,35,44,34.83,50.81Z" fill="#fff" fill-rule="evenodd"/><path d="M43.1,21.81A162.33,162.33,0,0,0,40.72,1v0a47.57,47.57,0,0,0-5-.73c.52,7.21.8,14.35.9,21.45Z" fill="#fff" fill-rule="evenodd"/><path d="M7.67,6.16l-.76.38C-2.32,21.62-2,36.43,6,50.85h.55C-1.67,36.18-1,21.44,7.67,6.16Z" fill="#fff" fill-rule="evenodd"/><path d="M7.15,50.85h.49C.3,36.47,1.14,21.06,8.88,5.54l-.65.33C-.08,21.6-.48,36.64,7.15,50.85Z" fill="#fff" fill-rule="evenodd"/><path d="M8.29,50.85h4.56c-2.13-6-3.09-13.09-3.17-20.9l8.84,20.88c3.23,0,6.39,0,9.52,0,1.59-7,3.38-14.07,5.22-21L33,0,31.66,0a302.89,302.89,0,0,1-9.54,29.84c-3.55-9-5.91-18.19-6-27.17A40.32,40.32,0,0,0,9.6,5.2C2.34,20.21.79,35.62,8.29,50.85Z" fill="#fff" fill-rule="evenodd"/><path d="M34.59,21.6c-.11-7.16-.32-14.33-.69-21.52l-.67,0c.28,7.05.41,14.28.45,21.54Z" fill="#fff" fill-rule="evenodd"/><path d="M97.9,51.78a13.38,13.38,0,0,1-1.09-5.89c0-2.7,1-7,1.61-9.77l2-.14c.19.12.42.24.66.36.84.4,4.39,1.64,4.39-.14a1.33,1.33,0,0,0-.24-.7,52.61,52.61,0,0,0,6-1c.7-.17,1-.56.06-.58-.77,0-7.69.18-7.83.12a5,5,0,0,0-2.2-.22,2.42,2.42,0,0,0-1.3.29H98.84a23,23,0,0,0,.61-3.65c0-1.77-3.71-3.31-3.71-1a40.31,40.31,0,0,1-1,4.61A91.69,91.69,0,0,1,84,33.33c-.5-.08-.73.24-.12.58a17.61,17.61,0,0,0,10.4,2.38c-.3,1.43-.58,2.89-.82,4.38-.57,3.48-.68,7.24,1.23,10.1a4,4,0,0,0,3,2.07C98.59,52.84,98.32,52.56,97.9,51.78Z" fill="#fff" fill-rule="evenodd"/><path d="M150.61,37.1c-2-.91-3-.3-3.85,1.92a4.87,4.87,0,0,0-.17,3.2,2.28,2.28,0,0,0,1.47,1.69c3.2.85,4.85-3.93,4.45-5.26C152.24,37.73,151.34,37.42,150.61,37.1Z" fill="#fff" fill-rule="evenodd"/><path d="M169.73,7.42a13.86,13.86,0,0,0-4.55-.56c-3,.2-4.67,1.81-6.41,4.38-2.42,3.55-7.27,14.21-7.94,18-.22,1.25-.61,3.64,0,4.72a2.55,2.55,0,0,0,2.27,1.31c1.11-.08,2.79-2,3.48-2.83,2.34-2.94,4.66-5.84,7.19-8.76,2.74-3.17,7.09-7.22,9.66-10.07C176.71,9.93,173.28,8.4,169.73,7.42Z" fill="#fff" fill-rule="evenodd"/><path d="M64.84,37.09a1.19,1.19,0,0,0-.79.42c-1.63,1.62-3.44,5.92-3.95,8.16-.39-4.32.51-4.76.51-6.36,0-1.41-1.54-1.86-3-1.86-1,0-1.29,3.27-1.35,4.08-.81,11.29,4.91,10.18,4.91,9.43a23.06,23.06,0,0,1-.79-2.63A6.52,6.52,0,0,1,60.63,47a30.36,30.36,0,0,1,3.54-7.62,13.86,13.86,0,0,0-.52,2.61c0,.8,1.92,1,2.68,1,1.29,0,1.85-1.36,2-2.47C68.92,37.28,67.66,37.09,64.84,37.09Z" fill="#fff" fill-rule="evenodd"/><path d="M74.24,36.2c0-1.11-1.88-2.37-3.1-2.37-1,0-2.83-.19-2.83,1.18S74.24,38.36,74.24,36.2Z" fill="#fff" fill-rule="evenodd"/><path d="M86,39.48a48.6,48.6,0,0,0-1,5.65c-.15,1.49-.3,3.37.61,4.51,1.53,1.94,3.87,2,3.87,1.46A11.72,11.72,0,0,1,88.9,47c0-1.85,1.55-6.87,1.55-8.08,0-.85-1.67-1.14-1.92-1.26a5.4,5.4,0,0,0-1.43-.14C84.64,37.5,81.3,46,80.57,48a34.5,34.5,0,0,1,0-5.57c0-1.54-4.48-1.34-4.48-.89s.34.34.34.7c0,.58,0,1.57,0,2.38,0,.38.08.78.15,1.2,0,.2-1.74,2.84-2.56,3.17a10.16,10.16,0,0,1-1.16-5.11c0-1.09.18-2.28.18-3.35,0-1.23-3.83-2.16-3.83-1.09,0,.52-.24,1.76-.29,2.63a13.64,13.64,0,0,0,.69,6,3.79,3.79,0,0,0,3.71,2.53c1.47,0,2.83-2.33,3.49-3.53.44,1.8,1.51,3.75,3.59,3.75a1.14,1.14,0,0,0,.37-.05.35.35,0,0,0,.33-.24,4.49,4.49,0,0,0,.69-1.11C83.33,46.3,84.41,42.58,86,39.48Z" fill="#fff" fill-rule="evenodd"/><path d="M117.28,49.77c1.37,1.81,2.91,1.82,2.91,1.33s-.23-.61-.39-1.71A18.67,18.67,0,0,1,117.28,49.77Z" fill="#fff" fill-rule="evenodd"/><path d="M112.62,48.36h0a1.19,1.19,0,0,1,.08-.22,4.81,4.81,0,0,1,.73-1,10.93,10.93,0,0,1,.9-.81c.6-1.55,1.17-3.14,1.83-4.65a11.2,11.2,0,0,1,1.34-2.19c-.36,1.81-.66,3.51-.85,5.41,0,.36-.07.92-.09,1.15s0,.55,0,.82a.79.79,0,0,0,.6.22,11.57,11.57,0,0,0,2.35-.17l.18,0c.09-2,1.4-6.8,1.4-8,0-.85-1.51-1.14-1.74-1.26A4.38,4.38,0,0,0,118,37.5c-.84,0-1.71,1.2-2.67,2.75a47.46,47.46,0,0,0-3.6,7.76,34.5,34.5,0,0,1,0-5.57c0-1.54-4.47-1.34-4.47-.89s.33.34.33.7c0,.58,0,1.57.05,2.38,0,.38.08.78.14,1.2,0,.2-1.73,2.84-2.56,3.17a10.16,10.16,0,0,1-1.15-5.11c0-1.09.18-2.28.18-3.35,0-1.23-3.83-2.16-3.83-1.09,0,.52-.24,1.76-.29,2.63a13.49,13.49,0,0,0,.68,6,3.81,3.81,0,0,0,3.71,2.53c1.48,0,2.83-2.33,3.5-3.53.44,1.8,1.51,3.75,3.59,3.75a1.12,1.12,0,0,0,.36-.05.36.36,0,0,0,.34-.24,4.84,4.84,0,0,0,.68-1.11l0,0A.84.84,0,0,1,112.62,48.36Z" fill="#fff" fill-rule="evenodd"/><path d="M7.61,54.84H9.09v4.8H7.61Z" fill="#fff"/><path d="M17.31,54.84H18.7l1.81,2.66V54.84H21.9v4.8H20.51L18.71,57v2.63h-1.4Z" fill="#fff"/><path d="M28.57,54.84H30l1.8,2.66V54.84h1.4v4.8h-1.4L30,57v2.63h-1.4Z" fill="#fff"/><path d="M39.64,57.25a2.27,2.27,0,0,1,2.48-2.49,2.53,2.53,0,0,1,1.85.65,2.4,2.4,0,0,1,.64,1.8,3,3,0,0,1-.28,1.38,2,2,0,0,1-.82.84,2.67,2.67,0,0,1-1.33.3,3.15,3.15,0,0,1-1.35-.26,2.11,2.11,0,0,1-.86-.82A2.74,2.74,0,0,1,39.64,57.25Zm1.48,0a1.61,1.61,0,0,0,.27,1,.93.93,0,0,0,.74.32.92.92,0,0,0,.74-.32,1.79,1.79,0,0,0,.26-1.11,1.5,1.5,0,0,0-.27-1,1,1,0,0,0-1.47,0A1.61,1.61,0,0,0,41.12,57.25Z" fill="#fff"/><path d="M50.78,54.84h1.55l1.08,3.46,1.07-3.46H56l-1.79,4.8H52.6Z" fill="#fff"/><path d="M65.46,58.85H63.78l-.23.79H62l1.81-4.8h1.61l1.81,4.8H65.7Zm-.3-1-.53-1.72-.53,1.72Z" fill="#fff"/><path d="M73.65,54.84h4.51V56H76.65v3.61H75.16V56H73.65Z" fill="#fff"/><path d="M86.42,54.84H87.9v4.8H86.42Z" fill="#fff"/><path d="M95.93,57.25a2.29,2.29,0,0,1,2.48-2.49,2.53,2.53,0,0,1,1.85.65,2.4,2.4,0,0,1,.64,1.8,3,3,0,0,1-.28,1.38,2,2,0,0,1-.82.84,2.67,2.67,0,0,1-1.33.3,3.15,3.15,0,0,1-1.35-.26,2.11,2.11,0,0,1-.86-.82A2.74,2.74,0,0,1,95.93,57.25Zm1.48,0a1.61,1.61,0,0,0,.27,1,.93.93,0,0,0,.74.32.92.92,0,0,0,.74-.32,1.79,1.79,0,0,0,.26-1.11,1.5,1.5,0,0,0-.27-1,1,1,0,0,0-1.47,0A1.61,1.61,0,0,0,97.41,57.25Z" fill="#fff"/><path d="M107.38,54.84h1.38l1.81,2.66V54.84H112v4.8h-1.4L108.77,57v2.63h-1.39Z" fill="#fff"/></g></g></svg>